<?xml version="1.0" standalone="no"?>
<!DOCTYPE svg PUBLIC "-//W3C//DTD SVG 1.1//EN" "http://www.w3.org/Graphics/SVG/1.1/DTD/svg11.dtd" >
<svg xmlns="http://www.w3.org/2000/svg" xmlns:xlink="http://www.w3.org/1999/xlink" version="1.1">
<metadata>
Created by FontForge 20170731 at Mon May  7 09:01:43 2007
 By Aleksey,,,
Copyright (C) 2004 Hoefler &#38; Frere-Jones Typography, Inc. www.typography.com
</metadata>
<defs>
<font id="Whitney-MediumItalic" horiz-adv-x="454" >
  <font-face 
    font-family="Whitney"
    font-weight="500"
    font-style="italic"
    font-stretch="normal"
    units-per-em="1000"
    panose-1="0 0 0 0 0 0 0 0 0 0"
    ascent="800"
    descent="-200"
    x-height="477"
    cap-height="690"
    bbox="-136 -200 1027 942"
    underline-thickness="20"
    underline-position="-173"
    slope="-12"
    unicode-range="U+0020-FB02"
  />
<missing-glyph horiz-adv-x="500" 
 />
    <glyph glyph-name=".notdef" horiz-adv-x="500" 
 />
    <glyph glyph-name=".null" horiz-adv-x="0" 
 />
    <glyph glyph-name="nonmarkingreturn" horiz-adv-x="333" 
 />
    <glyph glyph-name="space" unicode=" " horiz-adv-x="210" 
 />
    <glyph glyph-name="exclam" unicode="!" horiz-adv-x="272" 
d="M262 690l-99 -472l-61 -13l52 485h108zM167 119l-19 -119h-100l19 119h100z" />
    <glyph glyph-name="quotedbl" unicode="&#x22;" horiz-adv-x="409" 
d="M416 676l-58 -208l-50 12l6 196h102zM234 676l-58 -208l-50 12l6 196h102z" />
    <glyph glyph-name="numbersign" unicode="#" horiz-adv-x="662" 
d="M620 428h-120l-29 -180h117l13 -77h-142l-27 -173h-71l27 173h-168l-28 -178l-69 15l26 163h-108v77h120l28 180h-115l-13 77h141l27 173h72l-27 -173h167l28 178l69 -15l-26 -163h108v-77zM429 428h-168l-28 -180h167z" />
    <glyph glyph-name="dollar" unicode="$" horiz-adv-x="519" 
d="M416 670q50 -12 95 -37l-25 -79q-39 27 -96 44q-67 -216 -67 -217q81 -39 113.5 -80.5t32.5 -102.5q0 -94 -68 -148.5t-169 -54.5q-20 0 -29 1l-37 -118l-64 14l37 114q-70 16 -127 48l24 80q70 -43 128 -57l77 247q-71 34 -105.5 73t-34.5 101q0 82 58.5 132.5
t157.5 50.5q24 0 35 -1l22 75l64 -15zM225 67h13q63 0 105.5 34t42.5 88q0 35 -19.5 59.5t-69.5 49.5l-18 -58q-18 -57 -36 -115zM330 609q-6 1 -18 1q-62 0 -96 -29t-34 -75q0 -29 19 -52t66 -47z" />
    <glyph glyph-name="percent" unicode="%" horiz-adv-x="864" 
d="M379 519q0 -94 -50 -163.5t-121 -69.5q-66 0 -100 44.5t-34 120.5q0 94 50 163.5t121 69.5q66 0 100 -44.5t34 -120.5zM749 667l-534 -674l-68 16l534 674zM244 623q-42 0 -69 -52.5t-27 -122.5q0 -101 60 -101q43 0 70 53t27 123q0 49 -16.5 74.5t-44.5 25.5zM822 225
q0 -94 -50 -163.5t-121 -69.5q-66 0 -100 44.5t-34 120.5q0 94 50 163.5t121 69.5q66 0 100 -44.5t34 -120.5zM748 228q0 101 -60 101q-43 0 -70 -53t-27 -123q0 -49 16.5 -74.5t44.5 -25.5q42 0 69 52.5t27 122.5z" />
    <glyph glyph-name="ampersand" unicode="&#x26;" horiz-adv-x="654" 
d="M502 169l116 -153l-95 -22l-77 101q-102 -108 -224 -108q-88 0 -142 47t-54 126q0 154 199 225q-55 76 -55 141q0 76 53.5 126.5t137.5 50.5q87 0 166 -42l-26 -81q-73 45 -144 45q-43 0 -70.5 -24.5t-27.5 -65.5q0 -46 55 -119l139 -183q41 72 67 167l77 -18
q-38 -124 -95 -213zM400 155l-32 43l-66 86l-33 43q-150 -48 -150 -161q0 -47 29.5 -75.5t83.5 -28.5q88 0 168 93z" />
    <glyph glyph-name="quotesingle" unicode="'" horiz-adv-x="227" 
d="M234 676l-58 -208l-50 12l6 196h102z" />
    <glyph glyph-name="parenleft" unicode="(" horiz-adv-x="406" 
d="M395 638q-231 -149 -231 -401q0 -79 36 -153.5t113 -158.5l-89 -19q-76 77 -115 153t-39 172q0 306 325 495v-88z" />
    <glyph glyph-name="parenright" unicode=")" horiz-adv-x="406" 
d="M359 397q0 -307 -325 -496v88q230 150 230 401q0 80 -36 154.5t-113 158.5l89 19q76 -78 115.5 -154t39.5 -171z" />
    <glyph glyph-name="asterisk" unicode="*" horiz-adv-x="400" 
d="M401 569l-109 -52l58 -107l-26 -17l-82 87l-83 -87l-25 17l57 107l-108 52l10 29l118 -21l14 118h33l14 -118l119 21z" />
    <glyph glyph-name="plus" unicode="+" horiz-adv-x="572" 
d="M528 301h-193l-31 -199h-78l31 199h-193l12 74h193l31 199h78l-31 -199h193z" />
    <glyph glyph-name="comma" unicode="," horiz-adv-x="227" 
d="M166 119l-143 -252l-48 12l88 240h103z" />
    <glyph glyph-name="hyphen" unicode="-" horiz-adv-x="354" 
d="M311 327l-12 -85h-245l11 85h246z" />
    <glyph glyph-name="period" unicode="." horiz-adv-x="227" 
d="M144 119l-18 -119h-100l18 119h100z" />
    <glyph glyph-name="slash" unicode="/" horiz-adv-x="536" 
d="M585 682l-596 -809l-82 17l596 809z" />
    <glyph glyph-name="zero" unicode="0" horiz-adv-x="587" 
d="M558 428q0 -191 -83.5 -316t-207.5 -125q-95 0 -149.5 71.5t-54.5 189.5q0 192 83 316.5t208 124.5q94 0 149 -71.5t55 -189.5zM467 423q0 92 -32 140.5t-90 48.5q-83 0 -137.5 -102.5t-54.5 -256.5q0 -92 31.5 -140.5t89.5 -48.5q83 0 138 102.5t55 256.5z" />
    <glyph glyph-name="one" unicode="1" horiz-adv-x="342" 
d="M321 678l-106 -678h-87l93 586l-144 -51v70l171 73h73z" />
    <glyph glyph-name="two" unicode="2" horiz-adv-x="517" 
d="M500 522q0 -57 -30.5 -105t-109.5 -122l-229 -216h298v-79h-427l11 69l302 286q50 48 73 83.5t23 75.5q0 45 -28 70t-78 25q-90 0 -189 -75v88q94 67 198 67q88 0 137 -46t49 -121z" />
    <glyph glyph-name="three" unicode="3" horiz-adv-x="494" 
d="M480 533q0 -73 -43.5 -117t-110.5 -63q115 -42 115 -153q0 -97 -68 -155t-178 -58q-99 0 -194 56l27 80q88 -58 174 -58q69 0 110 34.5t41 93.5q0 125 -168 125h-21v77h45q81 0 131.5 34t50.5 92q0 43 -28 66.5t-81 23.5q-88 0 -178 -63v84q88 57 185 57
q90 0 140.5 -41.5t50.5 -114.5z" />
    <glyph glyph-name="four" unicode="4" horiz-adv-x="569" 
d="M544 228l-12 -73h-110l-24 -155h-80l25 155h-319l9 65l368 456h105l-72 -448h110zM354 228l56 349l-283 -349h227z" />
    <glyph glyph-name="five" unicode="5" horiz-adv-x="503" 
d="M495 599h-272l-42 -175q137 -21 204 -74t67 -145q0 -99 -67.5 -158t-168.5 -59q-108 0 -206 55l27 80q94 -57 184 -57q64 0 103 36t39 93q0 70 -63 107.5t-210 53.5l74 320h331v-77z" />
    <glyph glyph-name="six" unicode="6" horiz-adv-x="549" 
d="M161 365q85 49 171 49q83 0 130.5 -46.5t47.5 -134.5q0 -105 -71 -175.5t-178 -70.5q-94 0 -150.5 64t-56.5 176q0 181 115.5 303.5t309.5 160.5v-79q-122 -25 -203.5 -88.5t-114.5 -158.5zM142 283q-3 -24 -3 -50q0 -79 34 -124.5t95 -45.5q67 0 111 45t44 116
q0 114 -114 114q-83 0 -167 -55z" />
    <glyph glyph-name="seven" unicode="7" horiz-adv-x="520" 
d="M541 676l-11 -67l-363 -616l-82 20l347 585h-327v78h436z" />
    <glyph glyph-name="eight" unicode="8" horiz-adv-x="553" 
d="M326 383q116 52 116 140q0 43 -30.5 68t-85.5 25q-58 0 -92.5 -30.5t-34.5 -72.5q0 -39 28.5 -68t98.5 -62zM272 326q-149 -53 -149 -156q0 -51 39 -80.5t100 -29.5q70 0 110.5 34t40.5 87q0 44 -29.5 75.5t-111.5 69.5zM199 364q-86 54 -86 141q0 77 59.5 130.5
t156.5 53.5q91 0 145 -44.5t54 -114.5q0 -118 -133 -182q106 -62 106 -158q0 -88 -66.5 -145t-179.5 -57q-101 0 -160.5 48.5t-59.5 123.5q0 133 164 204z" />
    <glyph glyph-name="nine" unicode="9" horiz-adv-x="549" 
d="M417 303q-84 -47 -169 -47q-83 0 -130.5 46.5t-47.5 134.5q0 105 71.5 178.5t177.5 73.5q94 0 150.5 -64t56.5 -176q0 -183 -117 -304t-313 -160v79q121 25 203.5 86t117.5 153zM437 386q4 25 4 57q0 79 -34 124.5t-95 45.5q-67 0 -111 -47.5t-44 -119.5q0 -114 114 -114
q83 0 166 54z" />
    <glyph glyph-name="colon" unicode=":" horiz-adv-x="236" 
d="M205 477l-18 -119h-100l18 119h100zM149 119l-18 -119h-100l18 119h100z" />
    <glyph glyph-name="semicolon" unicode=";" horiz-adv-x="236" 
d="M210 477l-18 -119h-100l18 119h100zM161 119l-143 -252l-48 12l88 240h103z" />
    <glyph glyph-name="less" unicode="&#x3c;" horiz-adv-x="572" 
d="M478 82l-411 222l10 68l483 222l-15 -89l-382 -170l328 -169z" />
    <glyph glyph-name="equal" unicode="=" horiz-adv-x="590" 
d="M545 410h-445l13 80h445zM510 186h-445l13 80h445z" />
    <glyph glyph-name="greater" unicode="&#x3e;" horiz-adv-x="572" 
d="M125 594l411 -222l-10 -68l-483 -222l15 89l382 170l-328 169z" />
    <glyph glyph-name="question" unicode="?" horiz-adv-x="484" 
d="M190 368l29 12q103 43 138.5 73t35.5 81q0 40 -27.5 63t-76.5 23q-88 0 -190 -72v90q96 65 205 65q85 0 134 -43t49 -114q0 -80 -49 -129.5t-176 -99.5l-25 -99l-60 -13zM242 119l-19 -119h-100l19 119h100z" />
    <glyph glyph-name="at" unicode="@" horiz-adv-x="826" 
d="M472 205l30 169q-27 9 -59 9q-53 0 -96 -58t-43 -145q0 -69 50 -69q44 0 118 94zM473 136q-42 -50 -73.5 -71t-68.5 -21q-44 0 -75 32t-31 90q0 122 69.5 201.5t158.5 79.5q63 0 135 -26l-35 -209q-6 -39 -6 -55q0 -31 17 -47.5t47 -16.5q55 0 89.5 56t34.5 154
q0 139 -79.5 213.5t-204.5 74.5q-149 0 -255 -116t-106 -290q0 -144 79 -217t209 -73q117 0 217 49l6 -36q-103 -48 -227 -48q-151 0 -239.5 85.5t-88.5 238.5q0 183 118.5 313t290.5 130q147 0 235 -88t88 -235q0 -115 -49.5 -187.5t-126.5 -72.5q-51 0 -85 23.5t-44 68.5z
" />
    <glyph glyph-name="A" unicode="A" horiz-adv-x="639" 
d="M578 13l-92 -20l-39 214h-255l-103 -207h-97l357 693h94zM431 288l-53 293l-146 -293h199z" />
    <glyph glyph-name="B" unicode="B" horiz-adv-x="527" 
d="M500 535q0 -63 -33.5 -107t-90.5 -65q105 -44 105 -147q0 -104 -76.5 -160t-203.5 -56h-162l109 690h150q99 0 150.5 -42t51.5 -113zM409 522q0 42 -28.5 66.5t-86.5 24.5h-68l-34 -214h57q72 0 116 31t44 92zM390 210q0 54 -37.5 84t-112.5 30h-59l-40 -247h71
q84 0 131 33t47 100z" />
    <glyph glyph-name="C" unicode="C" horiz-adv-x="599" 
d="M597 636l-28 -91q-75 75 -166 75q-110 0 -179.5 -98.5t-69.5 -230.5q0 -109 48 -165t131 -56q91 0 181 63v-89q-87 -56 -186 -56q-125 0 -196.5 77.5t-71.5 215.5q0 170 98.5 295.5t249.5 125.5q114 0 189 -66z" />
    <glyph glyph-name="D" unicode="D" horiz-adv-x="654" 
d="M623 409q0 -184 -112 -296q-113 -113 -301 -113h-171l109 690h173q142 0 222 -73.5t80 -207.5zM528 399q0 104 -55.5 157t-161.5 53h-84l-84 -528h78q140 0 221 81q86 86 86 237z" />
    <glyph glyph-name="E" unicode="E" horiz-adv-x="467" 
d="M494 690l-13 -82h-254l-32 -205h196v-84h-209l-38 -237h263l-13 -82h-355l109 690h346z" />
    <glyph glyph-name="F" unicode="F" horiz-adv-x="444" 
d="M483 690l-13 -82h-243l-34 -216h188v-84h-201l-49 -308h-92l109 690h335z" />
    <glyph glyph-name="G" unicode="G" horiz-adv-x="660" 
d="M610 377l-51 -325q-108 -64 -222 -64q-125 0 -202 78.5t-77 214.5q0 109 45.5 205.5t129 156t184.5 59.5q128 0 205 -58l-27 -91q-77 67 -187 67q-108 0 -181.5 -97.5t-73.5 -231.5q0 -108 52.5 -164.5t136.5 -56.5q78 0 136 34l29 189h-147v84h250z" />
    <glyph glyph-name="H" unicode="H" horiz-adv-x="656" 
d="M649 690l-109 -690h-92l50 319h-316l-51 -319h-92l109 690h92l-45 -287h317l45 287h92z" />
    <glyph glyph-name="I" unicode="I" horiz-adv-x="258" 
d="M245 690l-109 -690h-92l109 690h92z" />
    <glyph glyph-name="J" unicode="J" horiz-adv-x="361" 
d="M358 690l-81 -513q-15 -94 -62 -138.5t-130 -44.5q-47 0 -85 9v84q43 -12 79 -12q44 0 70.5 24t35.5 82l81 509h92z" />
    <glyph glyph-name="K" unicode="K" horiz-adv-x="573" 
d="M608 690l-328 -323l240 -353l-94 -21l-240 357l-55 -350h-92l109 690h92l-49 -308l306 308h111z" />
    <glyph glyph-name="L" unicode="L" horiz-adv-x="435" 
d="M370 0h-331l109 690h92l-97 -608h227v-82z" />
    <glyph glyph-name="M" unicode="M" horiz-adv-x="854" 
d="M811 690l-55 -690h-89l45 555l-290 -558h-71l-113 558l-130 -555h-85l163 690h115l109 -566l288 566h113z" />
    <glyph glyph-name="N" unicode="N" horiz-adv-x="654" 
d="M647 690l-109 -690h-57l-271 558l-88 -558h-83l109 690h91l246 -506l79 506h83z" />
    <glyph glyph-name="O" unicode="O" horiz-adv-x="696" 
d="M663 407q0 -180 -97.5 -300t-241.5 -120q-128 0 -196 81.5t-68 214.5q0 180 97.5 300t241.5 120q128 0 196 -81.5t68 -214.5zM569 402q0 105 -45.5 163.5t-129.5 58.5q-104 0 -172 -96t-68 -240q0 -105 45.5 -163.5t128.5 -58.5q105 0 173 96t68 240z" />
    <glyph glyph-name="P" unicode="P" horiz-adv-x="515" 
d="M517 508q0 -105 -75.5 -166t-212.5 -61h-54l-44 -281h-92l109 690h133q114 0 175 -46.5t61 -135.5zM424 497q0 112 -139 112h-58l-38 -247h56q179 0 179 135z" />
    <glyph glyph-name="Q" unicode="Q" horiz-adv-x="696" 
d="M594 -60l-29 -83l-299 128q-111 47 -158.5 113.5t-47.5 184.5q0 180 97.5 300t241.5 120q128 0 196 -81.5t68 -214.5q0 -145 -64.5 -252.5t-171.5 -146.5zM569 402q0 105 -45.5 163.5t-129.5 58.5q-104 0 -172 -96t-68 -240q0 -105 45.5 -164t128.5 -59q105 0 173 96.5
t68 240.5z" />
    <glyph glyph-name="R" unicode="R" horiz-adv-x="548" 
d="M517 518q0 -83 -48.5 -138t-137.5 -74l160 -292l-95 -21l-165 305h-53l-47 -298h-92l109 690h138q109 0 170 -42.5t61 -129.5zM424 507q0 102 -134 102h-63l-36 -233h66q83 0 125 34t42 97z" />
    <glyph glyph-name="S" unicode="S" horiz-adv-x="503" 
d="M486 652l-26 -86q-78 55 -151 55q-55 0 -83.5 -29.5t-28.5 -72.5q0 -34 23 -60t84 -62q83 -49 115 -94t32 -105q0 -98 -65.5 -153t-160.5 -55q-110 0 -202 58l26 87q90 -66 181 -66q56 0 92 31.5t36 85.5q0 38 -20.5 63t-77.5 60q-85 52 -120.5 93.5t-35.5 102.5
q0 85 59.5 140t155.5 55q98 0 167 -48z" />
    <glyph glyph-name="T" unicode="T" horiz-adv-x="561" 
d="M596 608h-210l-96 -608h-92l96 608h-205l13 82h494v-82z" />
    <glyph glyph-name="U" unicode="U" horiz-adv-x="637" 
d="M642 690l-73 -460q-20 -122 -92 -182.5t-180 -60.5q-107 0 -168.5 55.5t-61.5 161.5q0 31 7 75l65 411h92l-66 -416q-4 -27 -4 -61q0 -68 36.5 -105.5t106.5 -37.5q148 0 176 179l70 441h92z" />
    <glyph glyph-name="V" unicode="V" horiz-adv-x="628" 
d="M673 690l-361 -693h-76l-139 680l95 20l103 -566l279 559h99z" />
    <glyph glyph-name="W" unicode="W" horiz-adv-x="981" 
d="M1017 690l-309 -690h-79l-89 555l-267 -555h-77l-88 677l97 20l58 -545l254 538h93l81 -538l229 538h97z" />
    <glyph glyph-name="X" unicode="X" horiz-adv-x="599" 
d="M622 690l-254 -327l166 -350l-95 -20l-132 292l-215 -285h-104l282 362l-148 315l93 20l116 -258l187 251h104z" />
    <glyph glyph-name="Y" unicode="Y" horiz-adv-x="606" 
d="M655 690l-303 -416l-43 -274h-92l44 274l-167 403l95 20l131 -337l231 330h104z" />
    <glyph glyph-name="Z" unicode="Z" horiz-adv-x="577" 
d="M598 690l-11 -67l-451 -544h362v-79h-487l11 67l451 544h-336v79h461z" />
    <glyph glyph-name="bracketleft" unicode="[" horiz-adv-x="409" 
d="M429 690l-10 -68h-187l-103 -657h180v-69h-276l125 794h271z" />
    <glyph glyph-name="backslash" unicode="\" horiz-adv-x="536" 
d="M573 -111l-80 -17l-472 809l80 17z" />
    <glyph glyph-name="bracketright" unicode="]" horiz-adv-x="409" 
d="M392 690l-125 -794h-272l11 69h186l104 657h-180v68h276z" />
    <glyph glyph-name="asciicircum" unicode="^" 
d="M413 554l-47 -10l-75 74l-99 -71h-58l123 141h84z" />
    <glyph glyph-name="underscore" unicode="_" 
d="M413 -35l-11 -69h-457l11 69h457z" />
    <glyph glyph-name="grave" unicode="`" 
d="M364 547h-56l-114 127l107 24z" />
    <glyph glyph-name="a" unicode="a" horiz-adv-x="493" 
d="M326 79q-89 -89 -160 -89q-60 0 -96.5 42t-36.5 120q0 147 82 239t194 92q66 0 150 -29l-52 -328v-126h-76zM327 161l37 240q-31 11 -66 11q-71 0 -124.5 -71.5t-53.5 -177.5q0 -98 66 -98q54 0 141 96z" />
    <glyph glyph-name="b" unicode="b" horiz-adv-x="499" 
d="M35 24l108 684l88 14l-47 -302q73 67 141 67q62 0 102 -44t40 -125q0 -144 -80 -234t-192 -90q-73 0 -160 30zM130 80q33 -14 77 -14q69 0 121 66t52 176q0 104 -74 104q-57 0 -136 -81z" />
    <glyph glyph-name="c" unicode="c" horiz-adv-x="426" 
d="M420 446l-27 -81q-60 45 -117 45q-61 0 -107.5 -64.5t-46.5 -151.5q0 -61 30 -94.5t83 -33.5q59 0 124 45v-81q-63 -40 -135 -40q-87 0 -138 52.5t-51 145.5q0 123 70.5 211t173.5 88q79 0 141 -41z" />
    <glyph glyph-name="d" unicode="d" horiz-adv-x="500" 
d="M507 722l-95 -608v-114h-77l-5 69q-77 -79 -155 -79q-62 0 -102 44t-40 125q0 144 80 234t188 90q42 0 81 -12l37 237zM370 397q-33 14 -77 14q-69 0 -121 -66t-52 -176q0 -104 74 -104q57 0 136 81z" />
    <glyph glyph-name="e" unicode="e" horiz-adv-x="456" 
d="M135 294h202q5 128 -80 128q-39 0 -72 -34t-50 -94zM123 229q-2 -26 -2 -41q0 -125 111 -125q72 0 157 62v-80q-80 -55 -171 -55q-84 0 -134 49.5t-50 143.5q0 134 68.5 219t158.5 85q76 0 118.5 -49t42.5 -135q0 -39 -7 -74h-292z" />
    <glyph glyph-name="f" unicode="f" horiz-adv-x="294" 
d="M344 637q-27 3 -43 3q-59 0 -70 -68l-16 -95h89v-72h-101l-90 -578l-88 -13l92 591h-67l12 72h67l18 110q11 66 48.5 96t106.5 30q22 0 42 -2v-74z" />
    <glyph glyph-name="g" unicode="g" horiz-adv-x="499" 
d="M465 453l-66 -420q-17 -110 -73 -162.5t-156 -52.5q-90 0 -167 37l25 75q75 -40 148 -40q111 0 134 125l9 51q-73 -67 -145 -67q-62 0 -101.5 42t-39.5 115q0 145 80.5 236t191.5 91q73 0 160 -30zM370 397q-33 14 -77 14q-69 0 -121 -68t-52 -177q0 -92 75 -92
q61 0 136 80z" />
    <glyph glyph-name="h" unicode="h" horiz-adv-x="495" 
d="M455 380q0 -18 -2 -36l-55 -344h-86l52 325q2 16 2 27q0 58 -49 58q-27 0 -69.5 -33t-84.5 -86l-45 -291h-86l112 708l88 14l-54 -333q94 98 165 98q54 0 83 -28t29 -79z" />
    <glyph glyph-name="i" unicode="i" horiz-adv-x="230" 
d="M234 630q0 -24 -16.5 -40.5t-40.5 -16.5t-40.5 16.5t-16.5 40.5t16.5 40.5t40.5 16.5t40.5 -16.5t16.5 -40.5zM195 477l-75 -477h-86l75 477h86z" />
    <glyph glyph-name="j" unicode="j" horiz-adv-x="230" 
d="M234 630q0 -24 -16.5 -40.5t-40.5 -16.5t-40.5 16.5t-16.5 40.5t16.5 40.5t40.5 16.5t40.5 -16.5t16.5 -40.5zM195 477l-85 -537q-10 -64 -42 -93t-88 -29q-31 0 -54 7v75q19 -7 44 -7q47 0 56 60l83 524h86z" />
    <glyph glyph-name="k" unicode="k" horiz-adv-x="455" 
d="M162 278l196 199h110l-222 -214l164 -255l-92 -15l-161 256l-39 -249h-86l112 708l88 14z" />
    <glyph glyph-name="l" unicode="l" horiz-adv-x="230" 
d="M234 722l-114 -722h-86l111 708z" />
    <glyph glyph-name="m" unicode="m" horiz-adv-x="766" 
d="M439 292l-46 -292h-87l52 325q3 15 3 27q0 30 -9 44t-36 14q-26 0 -68.5 -33t-84.5 -86l-45 -291h-86l57 363v114h77l5 -95q96 105 172 105q101 0 107 -96q89 96 164 96q54 0 83 -28t29 -79q0 -16 -3 -36l-55 -344h-86l52 325q3 15 3 27q0 58 -50 58q-24 0 -66 -33
t-82 -85z" />
    <glyph glyph-name="n" unicode="n" horiz-adv-x="495" 
d="M455 380q0 -18 -2 -36l-55 -344h-86l52 325q2 18 2 27q0 58 -49 58q-27 0 -69.5 -33t-84.5 -86l-45 -291h-86l57 363v114h77l5 -95q96 105 172 105q54 0 83 -28t29 -79z" />
    <glyph glyph-name="o" unicode="o" horiz-adv-x="489" 
d="M454 283q0 -122 -67.5 -207.5t-170.5 -85.5q-83 0 -132 53.5t-49 149.5q0 122 67.5 208t169.5 86q84 0 133 -54t49 -150zM367 281q0 69 -27.5 103t-72.5 34q-66 0 -105.5 -68t-39.5 -154q0 -70 27 -104t73 -34q66 0 105.5 68.5t39.5 154.5z" />
    <glyph glyph-name="p" unicode="p" horiz-adv-x="500" 
d="M3 -186l86 549v114h77l5 -69q77 79 155 79q62 0 102 -44t40 -125q0 -144 -80 -234t-188 -90q-42 0 -81 12l-28 -178zM131 80q33 -14 77 -14q69 0 121 66t52 176q0 104 -74 104q-57 0 -136 -81z" />
    <glyph glyph-name="q" unicode="q" horiz-adv-x="499" 
d="M465 453l-99 -626l-88 -13l38 243q-73 -67 -141 -67q-62 0 -102 44t-40 125q0 144 80 234t192 90q73 0 160 -30zM370 397q-33 14 -77 14q-69 0 -121 -66t-52 -176q0 -104 74 -104q57 0 136 81z" />
    <glyph glyph-name="r" unicode="r" horiz-adv-x="332" 
d="M344 400q-57 -6 -105 -39t-77 -82l-44 -279h-86l57 363v114h77l5 -107q33 49 79 82.5t94 34.5v-87z" />
    <glyph glyph-name="s" unicode="s" horiz-adv-x="388" 
d="M367 449l-26 -80q-63 42 -127 42q-33 0 -52 -16t-19 -38q0 -23 14.5 -37t56.5 -32q73 -32 104 -63.5t31 -83.5q0 -72 -48.5 -111.5t-126.5 -39.5q-92 0 -169 55l26 78q76 -58 156 -58q36 0 58 17.5t22 46.5q0 24 -17 40.5t-59 35.5q-72 33 -101 62t-29 78q0 64 44.5 103
t119.5 39q70 0 142 -38z" />
    <glyph glyph-name="t" unicode="t" horiz-adv-x="321" 
d="M313 405h-114l-42 -271q-2 -14 -2 -26q0 -42 51 -42q25 0 45 5v-72q-30 -7 -74 -7q-112 0 -112 93q0 18 4 42l44 278h-68l12 72h67l25 159l89 13l-27 -172h102v-72z" />
    <glyph glyph-name="u" unicode="u" horiz-adv-x="495" 
d="M463 477l-57 -363v-114h-77l-5 95q-96 -105 -172 -105q-54 0 -83 28t-29 79q0 18 2 36l55 344h86l-52 -325q-2 -18 -2 -27q0 -58 49 -58q27 0 69.5 33t84.5 86l45 291h86z" />
    <glyph glyph-name="v" unicode="v" horiz-adv-x="440" 
d="M455 477l-233 -479h-78l-85 472l87 14l56 -374l164 367h89z" />
    <glyph glyph-name="w" unicode="w" horiz-adv-x="700" 
d="M711 477l-224 -477h-70l-49 361l-162 -361h-69l-75 470l86 14l43 -358l157 351h79l46 -351l152 351h86z" />
    <glyph glyph-name="x" unicode="x" horiz-adv-x="447" 
d="M449 477l-181 -233l117 -238l-86 -13l-84 183l-131 -176h-96l193 246l-108 224l86 14l75 -170l120 163h95z" />
    <glyph glyph-name="y" unicode="y" horiz-adv-x="450" 
d="M466 477l-264 -528q-37 -74 -78.5 -102.5t-103.5 -28.5q-13 0 -31 4v76q25 -5 46 -5q49 0 79 54l34 62l-89 461l87 14l61 -374l170 367h89z" />
    <glyph glyph-name="z" unicode="z" horiz-adv-x="434" 
d="M424 477l-12 -67l-301 -339h249v-71h-363l11 67l302 339h-225v71h339z" />
    <glyph glyph-name="braceleft" unicode="{" horiz-adv-x="474" 
d="M496 690l-10 -66h-105q-80 0 -80 -85v-94q0 -72 -33 -107t-94 -47v-2q45 -11 65.5 -32t20.5 -61q0 -26 -20 -97t-20 -90q0 -46 63 -46h92v-67h-115q-58 0 -91 25t-33 75q0 26 20 96t20 97q0 72 -90 72h-32v65h49q60 0 88 32t28 100v92q0 140 168 140h109z" />
    <glyph glyph-name="bar" unicode="|" horiz-adv-x="265" 
d="M173 -173l-80 -13v895l80 13v-895z" />
    <glyph glyph-name="braceright" unicode="}" horiz-adv-x="474" 
d="M437 261h-48q-61 0 -89 -32t-28 -100v-93q0 -140 -168 -140h-109l10 67h105q80 0 80 84v95q0 71 33 106.5t94 47.5v2q-44 10 -64.5 31.5t-20.5 60.5q0 26 19.5 97t19.5 90q0 47 -63 47h-92v66h116q58 0 90.5 -25t32.5 -75q0 -26 -20 -95.5t-20 -96.5q0 -72 90 -72h32v-65
z" />
    <glyph glyph-name="asciitilde" unicode="~" horiz-adv-x="409" 
d="M375 337q-31 -114 -101 -114q-29 0 -67 23q-44 25 -61 25q-22 0 -40 -51l-57 12q32 114 101 114q29 0 67 -23q44 -25 61 -25q22 0 40 51z" />
    <glyph glyph-name="nbspace" unicode="&#xa0;" horiz-adv-x="105" 
 />
    <glyph glyph-name="exclamdown" unicode="&#xa1;" horiz-adv-x="272" 
d="M258 690l-19 -119h-100l19 119h100zM204 485l-52 -485h-108l99 472z" />
    <glyph glyph-name="cent" unicode="&#xa2;" horiz-adv-x="457" 
d="M379 571q40 -10 76 -39l-24 -76q-37 32 -77 43l-103 -330h13q70 0 135 43v-76q-70 -42 -147 -42q-15 0 -23 1l-33 -105l-64 15l34 107q-51 22 -81 70t-30 113q0 119 69.5 202.5t183.5 83.5h7l32 104l64 -14q-32 -99 -32 -100zM292 507q-70 -1 -110.5 -61.5t-40.5 -144.5
q0 -83 51 -115z" />
    <glyph glyph-name="sterling" unicode="&#xa3;" horiz-adv-x="524" 
d="M155 370l66 155q37 87 82.5 125.5t122.5 38.5q51 0 98 -15l-21 -79q-40 15 -86 15q-72 0 -113 -95l-61 -145h167v-75h-199l-93 -218h336v-77h-436l11 73l94 222h-74l12 75h94z" />
    <glyph glyph-name="currency" unicode="&#xa4;" horiz-adv-x="565" 
d="M221 390q-8 -45 -10 -99h219l-11 -68h-204q10 -79 47 -119.5t97 -40.5q72 0 148 56v-83q-71 -49 -157 -49q-98 0 -155 63t-69 173h-95v68h92q2 57 11 99h-83l11 68h90q36 103 106 167t165 64q96 0 165 -60l-25 -81q-71 65 -146 65q-57 0 -103 -42t-73 -113h209v-68h-229z
" />
    <glyph glyph-name="yen" unicode="&#xa5;" horiz-adv-x="578" 
d="M329 227l-12 -76h166l-12 -68h-165l-13 -83h-84l13 83h-161v68h172l12 76h-169l12 68h152l-147 368l87 20l126 -334l222 327h98l-271 -381h145v-68h-171z" />
    <glyph glyph-name="brokenbar" unicode="&#xa6;" horiz-adv-x="500" 
d="M25 -200v1000h450v-1000h-450z" />
    <glyph glyph-name="section" unicode="&#xa7;" horiz-adv-x="525" 
d="M498 366q0 -53 -41 -110l-74 17q33 45 33 80q0 21 -15.5 33.5t-57.5 23.5l-65 16q-70 17 -102.5 46t-32.5 80q0 60 46.5 96.5t128.5 36.5q87 0 166 -38l-23 -72q-76 41 -154 41q-39 0 -60.5 -16.5t-21.5 -40.5q0 -25 19.5 -38.5t69.5 -26.5l50 -13q68 -18 101 -42.5
t33 -72.5zM59 310q0 53 41 110l74 -17q-33 -45 -33 -80q0 -21 15.5 -33.5t57.5 -23.5l65 -16q70 -17 102.5 -46t32.5 -80q0 -60 -46.5 -96.5t-128.5 -36.5q-87 0 -166 38l23 72q76 -41 154 -41q39 0 60.5 16.5t21.5 40.5q0 25 -20 39t-69 26l-50 13q-68 18 -101 42.5
t-33 72.5z" />
    <glyph glyph-name="dieresis" unicode="&#xa8;" 
d="M416 551h-99l16 101h99zM237 551h-99l16 101h99z" />
    <glyph glyph-name="copyright" unicode="&#xa9;" horiz-adv-x="799" 
d="M761 346q0 -160 -96.5 -259.5t-249.5 -99.5q-154 0 -249.5 98.5t-95.5 258.5t96.5 259.5t249.5 99.5q154 0 249.5 -98.5t95.5 -258.5zM717 345q0 151 -85 236.5t-216 85.5q-133 0 -217.5 -85.5t-84.5 -236.5t85 -236.5t217 -85.5t216.5 85.5t84.5 236.5zM552 185
q-59 -41 -126 -41q-84 0 -135 56t-51 148q0 91 51.5 147.5t134.5 56.5q63 0 119 -35l-10 -68q-54 41 -109 41q-54 0 -86.5 -39t-32.5 -103t33 -103t86 -39q54 0 116 44z" />
    <glyph glyph-name="ordfeminine" unicode="&#xaa;" horiz-adv-x="381" 
d="M321 223h-267l10 59h257v-59zM281 444l12 77q-144 -16 -144 -85q0 -34 39 -34q33 0 93 42zM300 562l2 11q10 56 -49 56q-51 0 -111 -28v54q65 26 118 26q125 0 106 -112l-24 -145v-66h-55l-5 41q-62 -48 -112 -48q-38 0 -62 21.5t-24 59.5q0 113 216 130z" />
    <glyph glyph-name="guillemotleft" unicode="&#xab;" horiz-adv-x="527" 
d="M520 477l-185 -243l103 -223l-73 -16l-124 244l194 238h85zM315 477l-185 -243l102 -223l-72 -16l-125 244l195 238h85z" />
    <glyph glyph-name="logicalnot" unicode="&#xac;" horiz-adv-x="572" 
d="M528 301h-464l12 74h464z" />
    <glyph glyph-name="registered" unicode="&#xae;" horiz-adv-x="563" 
d="M544 470q0 -103 -63.5 -167.5t-163.5 -64.5q-101 0 -163.5 64t-62.5 168q0 103 63.5 168t163.5 65t163 -64.5t63 -168.5zM512 470q0 96 -55.5 151t-138.5 55q-85 0 -140 -55t-55 -151q0 -95 55.5 -150t138.5 -55q85 0 140 55t55 150zM429 356l-45 -10l-77 110h-25v-106
h-43v257h77q41 0 65.5 -20t24.5 -55q0 -55 -52 -71zM361 529q0 38 -45 38h-34v-76h32q47 0 47 38z" />
    <glyph glyph-name="macron" unicode="&#xaf;" 
d="M404 575h-247l11 72h247z" />
    <glyph glyph-name="degree" unicode="&#xb0;" horiz-adv-x="427" 
d="M424 514q0 -73 -47 -119.5t-120 -46.5t-120 46.5t-47 119.5t47 120.5t120 47.5t120 -47.5t47 -120.5zM356 514q0 44 -28.5 74t-70.5 30q-43 0 -71 -30t-28 -74q0 -45 28 -73.5t71 -28.5q42 0 70.5 28.5t28.5 73.5z" />
    <glyph glyph-name="plusminus" unicode="&#xb1;" horiz-adv-x="569" 
d="M532 155h-110l-24 -155h-80l25 155h-319l9 65l372 461l79 -20l-350 -433h220l28 173l83 18l-31 -191h110z" />
    <glyph glyph-name="twosuperior" unicode="&#xb2;" horiz-adv-x="500" 
d="M25 -200v1000h450v-1000h-450z" />
    <glyph glyph-name="threesuperior" unicode="&#xb3;" horiz-adv-x="500" 
d="M25 -200v1000h450v-1000h-450z" />
    <glyph glyph-name="acute" unicode="&#xb4;" 
d="M403 674l-152 -127h-68l108 151z" />
    <glyph glyph-name="mu" unicode="&#xb5;" horiz-adv-x="572" 
d="M433 123l-137 165l-190 -166l-47 55l192 164l-138 162l59 51l136 -164l189 165l47 -55l-191 -163l139 -163z" />
    <glyph glyph-name="paragraph" unicode="&#xb6;" horiz-adv-x="536" 
d="M415 0h-77l97 609h-73l-23 -144l-65 -199q-95 4 -149 49t-54 129q0 105 75 168.5t204 63.5h172z" />
    <glyph glyph-name="periodcentered" unicode="&#xb7;" horiz-adv-x="227" 
d="M162 224h-100l18 119h100z" />
    <glyph glyph-name="cedilla" unicode="&#xb8;" 
d="M259 -74l-140 -108h-64l98 133z" />
    <glyph glyph-name="onesuperior" unicode="&#xb9;" horiz-adv-x="500" 
d="M25 -200v1000h450v-1000h-450z" />
    <glyph glyph-name="ordmasculine" unicode="&#xba;" horiz-adv-x="385" 
d="M216 352q-58 0 -93 36t-35 99q0 80 47.5 137t120.5 57q58 0 93.5 -36.5t35.5 -99.5q0 -80 -48 -136.5t-121 -56.5zM330 223h-276l10 59h266v-59zM252 629q-46 0 -72.5 -42.5t-26.5 -95.5q0 -43 18.5 -65t49.5 -22q46 0 72.5 42.5t26.5 95.5q0 43 -18.5 65t-49.5 22z" />
    <glyph glyph-name="guillemotright" unicode="&#xbb;" horiz-adv-x="527" 
d="M212 0l185 242l-103 224l73 16l124 -244l-194 -238h-85zM6 0l186 242l-103 224l73 16l124 -244l-194 -238h-86z" />
    <glyph glyph-name="onequarter" unicode="&#xbc;" horiz-adv-x="500" 
d="M25 -200v1000h450v-1000h-450z" />
    <glyph glyph-name="onehalf" unicode="&#xbd;" horiz-adv-x="500" 
d="M25 -200v1000h450v-1000h-450z" />
    <glyph glyph-name="threequarters" unicode="&#xbe;" horiz-adv-x="500" 
d="M25 -200v1000h450v-1000h-450z" />
    <glyph glyph-name="questiondown" unicode="&#xbf;" horiz-adv-x="484" 
d="M328 322l-29 -12q-103 -42 -138.5 -72.5t-35.5 -81.5q0 -40 27.5 -63t76.5 -23q88 0 190 72v-90q-96 -65 -205 -65q-85 0 -134 43t-49 114q0 80 49 129.5t176 99.5l25 99l60 13zM276 571l19 119h100l-19 -119h-100z" />
    <glyph glyph-name="Agrave" unicode="&#xc0;" horiz-adv-x="639" 
d="M578 13l-92 -20l-39 214h-255l-103 -207h-97l357 693h94zM431 288l-53 293l-146 -293h199zM427 738h-56l-114 127l107 24z" />
    <glyph glyph-name="Aacute" unicode="&#xc1;" horiz-adv-x="639" 
d="M578 13l-92 -20l-39 214h-255l-103 -207h-97l357 693h94zM431 288l-53 293l-146 -293h199zM591 865l-152 -127h-68l108 151z" />
    <glyph glyph-name="Acircumflex" unicode="&#xc2;" horiz-adv-x="639" 
d="M578 13l-92 -20l-39 214h-255l-103 -207h-97l357 693h94zM431 288l-53 293l-146 -293h199zM536 736l-47 -10l-75 74l-99 -71h-58l123 141h84z" />
    <glyph glyph-name="Atilde" unicode="&#xc3;" horiz-adv-x="639" 
d="M578 13l-92 -20l-39 214h-255l-103 -207h-97l357 693h94zM431 288l-53 293l-146 -293h199zM572 855q-32 -114 -101 -114q-29 0 -67 23q-44 25 -61 25q-22 0 -40 -51l-57 12q32 114 101 114q29 0 67 -23q44 -25 61 -25q22 0 40 51z" />
    <glyph glyph-name="Adieresis" unicode="&#xc4;" horiz-adv-x="639" 
d="M578 13l-92 -20l-39 214h-255l-103 -207h-97l357 693h94zM431 288l-53 293l-146 -293h199zM539 742h-99l16 101h99zM360 742h-99l16 101h99z" />
    <glyph glyph-name="Aring" unicode="&#xc5;" horiz-adv-x="639" 
d="M578 13l-92 -20l-39 214h-255l-103 -207h-97l357 693h94zM431 288l-53 293l-146 -293h199zM516 838q0 -45 -29 -73.5t-74 -28.5t-74.5 28.5t-29.5 73.5q0 44 29.5 74t74.5 30t74 -29.5t29 -74.5zM470 838q0 25 -16.5 42.5t-40.5 17.5q-25 0 -41.5 -17t-16.5 -43
q0 -25 16.5 -42t41.5 -17q24 0 40.5 17t16.5 42z" />
    <glyph glyph-name="AE" unicode="&#xc6;" horiz-adv-x="850" 
d="M877 690l-13 -82h-254l-32 -205h196v-84h-209l-38 -237h263l-13 -82h-355l33 207h-239l-152 -207h-99l508 690h404zM521 624l-246 -336h193z" />
    <glyph glyph-name="Ccedilla" unicode="&#xc7;" horiz-adv-x="599" 
d="M597 636l-28 -91q-75 75 -166 75q-110 0 -179.5 -98.5t-69.5 -230.5q0 -109 48 -165t131 -56q91 0 181 63v-89q-87 -56 -186 -56q-125 0 -196.5 77.5t-71.5 215.5q0 170 98.5 295.5t249.5 125.5q114 0 189 -66zM358 -74l-140 -108h-64l98 133z" />
    <glyph glyph-name="Egrave" unicode="&#xc8;" horiz-adv-x="467" 
d="M494 690l-13 -82h-254l-32 -205h196v-84h-209l-38 -237h263l-13 -82h-355l109 690h346zM379 738h-56l-114 127l107 24z" />
    <glyph glyph-name="Eacute" unicode="&#xc9;" horiz-adv-x="467" 
d="M494 690l-13 -82h-254l-32 -205h196v-84h-209l-38 -237h263l-13 -82h-355l109 690h346zM482 865l-152 -127h-68l108 151z" />
    <glyph glyph-name="Ecircumflex" unicode="&#xca;" horiz-adv-x="467" 
d="M494 690l-13 -82h-254l-32 -205h196v-84h-209l-38 -237h263l-13 -82h-355l109 690h346zM464 745l-47 -10l-75 74l-99 -71h-58l123 141h84z" />
    <glyph glyph-name="Edieresis" unicode="&#xcb;" horiz-adv-x="467" 
d="M494 690l-13 -82h-254l-32 -205h196v-84h-209l-38 -237h263l-13 -82h-355l109 690h346zM467 742h-99l16 101h99zM288 742h-99l16 101h99z" />
    <glyph glyph-name="Igrave" unicode="&#xcc;" horiz-adv-x="258" 
d="M245 690l-109 -690h-92l109 690h92zM231 738h-56l-114 127l107 24z" />
    <glyph glyph-name="Iacute" unicode="&#xcd;" horiz-adv-x="258" 
d="M245 690l-109 -690h-92l109 690h92zM388 865l-152 -127h-68l108 151z" />
    <glyph glyph-name="Icircumflex" unicode="&#xce;" horiz-adv-x="258" 
d="M245 690l-109 -690h-92l109 690h92zM339 736l-47 -10l-75 74l-99 -71h-58l123 141h84z" />
    <glyph glyph-name="Idieresis" unicode="&#xcf;" horiz-adv-x="258" 
d="M245 690l-109 -690h-92l109 690h92zM342 742h-99l16 101h99zM163 742h-99l16 101h99z" />
    <glyph glyph-name="Eth" unicode="&#xd0;" horiz-adv-x="684" 
d="M653 409q0 -184 -112 -296q-113 -113 -301 -113h-171l50 319h-75v84h89l45 287h172q143 0 223 -73.5t80 -207.5zM558 399q0 104 -55.5 157t-161.5 53h-84l-33 -206h174l-14 -84h-173l-38 -238h78q140 0 221 81q86 86 86 237z" />
    <glyph glyph-name="Ntilde" unicode="&#xd1;" horiz-adv-x="654" 
d="M647 690l-109 -690h-57l-271 558l-88 -558h-83l109 690h91l246 -506l79 506h83zM580 846q-32 -114 -101 -114q-29 0 -67 23q-44 25 -61 25q-22 0 -40 -51l-57 12q32 114 101 114q29 0 67 -23q44 -25 61 -25q22 0 40 51z" />
    <glyph glyph-name="Ograve" unicode="&#xd2;" horiz-adv-x="696" 
d="M663 407q0 -180 -97.5 -300t-241.5 -120q-128 0 -196 81.5t-68 214.5q0 180 97.5 300t241.5 120q128 0 196 -81.5t68 -214.5zM569 402q0 105 -45.5 163.5t-129.5 58.5q-104 0 -172 -96t-68 -240q0 -105 45.5 -163.5t128.5 -58.5q105 0 173 96t68 240zM462 747h-56
l-114 127l107 24z" />
    <glyph glyph-name="Oacute" unicode="&#xd3;" horiz-adv-x="696" 
d="M663 407q0 -180 -97.5 -300t-241.5 -120q-128 0 -196 81.5t-68 214.5q0 180 97.5 300t241.5 120q128 0 196 -81.5t68 -214.5zM569 402q0 105 -45.5 163.5t-129.5 58.5q-104 0 -172 -96t-68 -240q0 -105 45.5 -163.5t128.5 -58.5q105 0 173 96t68 240zM582 874l-152 -127
h-68l108 151z" />
    <glyph glyph-name="Ocircumflex" unicode="&#xd4;" horiz-adv-x="696" 
d="M663 407q0 -180 -97.5 -300t-241.5 -120q-128 0 -196 81.5t-68 214.5q0 180 97.5 300t241.5 120q128 0 196 -81.5t68 -214.5zM569 402q0 105 -45.5 163.5t-129.5 58.5q-104 0 -172 -96t-68 -240q0 -105 45.5 -163.5t128.5 -58.5q105 0 173 96t68 240zM556 749l-47 -10
l-75 74l-99 -71h-58l123 141h84z" />
    <glyph glyph-name="Otilde" unicode="&#xd5;" horiz-adv-x="696" 
d="M663 407q0 -180 -97.5 -300t-241.5 -120q-128 0 -196 81.5t-68 214.5q0 180 97.5 300t241.5 120q128 0 196 -81.5t68 -214.5zM569 402q0 105 -45.5 163.5t-129.5 58.5q-104 0 -172 -96t-68 -240q0 -105 45.5 -163.5t128.5 -58.5q105 0 173 96t68 240zM592 868
q-32 -114 -101 -114q-29 0 -67 23q-44 25 -61 25q-22 0 -40 -51l-57 12q31 114 101 114q29 0 67 -23q44 -25 61 -25q22 0 40 51z" />
    <glyph glyph-name="Odieresis" unicode="&#xd6;" horiz-adv-x="696" 
d="M663 407q0 -180 -97.5 -300t-241.5 -120q-128 0 -196 81.5t-68 214.5q0 180 97.5 300t241.5 120q128 0 196 -81.5t68 -214.5zM569 402q0 105 -45.5 163.5t-129.5 58.5q-104 0 -172 -96t-68 -240q0 -105 45.5 -163.5t128.5 -58.5q105 0 173 96t68 240zM559 751h-99l16 101
h99zM380 751h-99l16 101h99z" />
    <glyph glyph-name="multiply" unicode="&#xd7;" horiz-adv-x="500" 
d="M25 -200v1000h450v-1000h-450z" />
    <glyph glyph-name="Oslash" unicode="&#xd8;" horiz-adv-x="696" 
d="M557 507l-355 -390q47 -53 130 -53q103 0 171 98t68 245q0 55 -14 100zM166 182l355 390q-46 54 -131 54q-102 0 -170 -97.5t-68 -245.5q0 -56 14 -101zM99 110q-39 72 -39 173q0 180 96.5 300t237.5 120q117 0 186 -67l57 63l80 -18l-93 -102q39 -71 39 -172
q0 -180 -96.5 -300t-237.5 -120q-117 0 -186 66l-14 -15l-28 -32l-14 -15l-80 18z" />
    <glyph glyph-name="Ugrave" unicode="&#xd9;" horiz-adv-x="637" 
d="M642 690l-73 -460q-20 -122 -92 -182.5t-180 -60.5q-107 0 -168.5 55.5t-61.5 161.5q0 31 7 75l65 411h92l-66 -416q-4 -27 -4 -61q0 -68 36.5 -105.5t106.5 -37.5q148 0 176 179l70 441h92zM441 724h-56l-114 127l107 24z" />
    <glyph glyph-name="Uacute" unicode="&#xda;" horiz-adv-x="637" 
d="M642 690l-73 -460q-20 -122 -92 -182.5t-180 -60.5q-107 0 -168.5 55.5t-61.5 161.5q0 31 7 75l65 411h92l-66 -416q-4 -27 -4 -61q0 -68 36.5 -105.5t106.5 -37.5q148 0 176 179l70 441h92zM559 851l-152 -127h-68l108 151z" />
    <glyph glyph-name="Ucircumflex" unicode="&#xdb;" horiz-adv-x="637" 
d="M642 690l-73 -460q-20 -122 -92 -182.5t-180 -60.5q-107 0 -168.5 55.5t-61.5 161.5q0 31 7 75l65 411h92l-66 -416q-4 -27 -4 -61q0 -68 36.5 -105.5t106.5 -37.5q148 0 176 179l70 441h92zM535 736l-47 -10l-75 74l-99 -71h-58l123 141h84z" />
    <glyph glyph-name="Udieresis" unicode="&#xdc;" horiz-adv-x="637" 
d="M642 690l-73 -460q-20 -122 -92 -182.5t-180 -60.5q-107 0 -168.5 55.5t-61.5 161.5q0 31 7 75l65 411h92l-66 -416q-4 -27 -4 -61q0 -68 36.5 -105.5t106.5 -37.5q148 0 176 179l70 441h92zM538 733h-99l16 101h99zM359 733h-99l16 101h99z" />
    <glyph glyph-name="Yacute" unicode="&#xdd;" horiz-adv-x="606" 
d="M655 690l-303 -416l-43 -274h-92l44 274l-167 403l95 20l131 -337l231 330h104zM544 847l-152 -127h-68l108 151z" />
    <glyph glyph-name="Thorn" unicode="&#xde;" horiz-adv-x="515" 
d="M496 377q0 -105 -75.5 -166.5t-212.5 -61.5h-54l-23 -149h-92l109 690h92l-21 -132h42q114 0 174.5 -46.5t60.5 -134.5zM403 365q0 113 -139 113h-58l-39 -247h57q179 0 179 134z" />
    <glyph glyph-name="germandbls" unicode="&#xdf;" horiz-adv-x="580" 
d="M538 161q0 -82 -51.5 -126.5t-132.5 -44.5q-78 0 -144 41l24 72q67 -40 126 -40q44 0 69 24t25 67q0 47 -41.5 79.5t-133.5 53.5v68q61 68 87.5 115t26.5 96q0 33 -18 52.5t-51 19.5q-83 0 -101 -110l-110 -701l-88 -13l92 591h-67l12 72h67l9 57q14 89 66 134t132 45
q69 0 107.5 -38t38.5 -100q0 -64 -32 -118t-96 -120q92 -23 138 -65t46 -111z" />
    <glyph glyph-name="agrave" unicode="&#xe0;" horiz-adv-x="493" 
d="M326 79q-89 -89 -160 -89q-60 0 -96.5 42t-36.5 120q0 147 82 239t194 92q66 0 150 -29l-52 -328v-126h-76zM327 161l37 240q-31 11 -66 11q-71 0 -124.5 -71.5t-53.5 -177.5q0 -98 66 -98q54 0 141 96zM344 547h-56l-114 127l107 24z" />
    <glyph glyph-name="aacute" unicode="&#xe1;" horiz-adv-x="493" 
d="M326 79q-89 -89 -160 -89q-60 0 -96.5 42t-36.5 120q0 147 82 239t194 92q66 0 150 -29l-52 -328v-126h-76zM327 161l37 240q-31 11 -66 11q-71 0 -124.5 -71.5t-53.5 -177.5q0 -98 66 -98q54 0 141 96zM478 674l-152 -127h-68l108 151z" />
    <glyph glyph-name="acircumflex" unicode="&#xe2;" horiz-adv-x="493" 
d="M326 79q-89 -89 -160 -89q-60 0 -96.5 42t-36.5 120q0 147 82 239t194 92q66 0 150 -29l-52 -328v-126h-76zM327 161l37 240q-31 11 -66 11q-71 0 -124.5 -71.5t-53.5 -177.5q0 -98 66 -98q54 0 141 96zM441 554l-47 -10l-75 74l-99 -71h-58l123 141h84z" />
    <glyph glyph-name="atilde" unicode="&#xe3;" horiz-adv-x="493" 
d="M326 79q-89 -89 -160 -89q-60 0 -96.5 42t-36.5 120q0 147 82 239t194 92q66 0 150 -29l-52 -328v-126h-76zM327 161l37 240q-31 11 -66 11q-71 0 -124.5 -71.5t-53.5 -177.5q0 -98 66 -98q54 0 141 96zM477 664q-31 -114 -101 -114q-29 0 -67 23q-44 25 -61 25
q-22 0 -40 -51l-57 12q31 114 101 114q29 0 67 -23q44 -25 61 -25q22 0 40 51z" />
    <glyph glyph-name="adieresis" unicode="&#xe4;" horiz-adv-x="493" 
d="M326 79q-89 -89 -160 -89q-60 0 -96.5 42t-36.5 120q0 147 82 239t194 92q66 0 150 -29l-52 -328v-126h-76zM327 161l37 240q-31 11 -66 11q-71 0 -124.5 -71.5t-53.5 -177.5q0 -98 66 -98q54 0 141 96zM444 551h-99l16 101h99zM265 551h-99l16 101h99z" />
    <glyph glyph-name="aring" unicode="&#xe5;" horiz-adv-x="493" 
d="M326 79q-89 -89 -160 -89q-60 0 -96.5 42t-36.5 120q0 147 82 239t194 92q66 0 150 -29l-52 -328v-126h-76zM327 161l37 240q-31 11 -66 11q-71 0 -124.5 -71.5t-53.5 -177.5q0 -98 66 -98q54 0 141 96zM421 647q0 -45 -29 -73.5t-74 -28.5t-74.5 28.5t-29.5 73.5
q0 44 29.5 74t74.5 30t74 -29.5t29 -74.5zM375 647q0 25 -16.5 42.5t-40.5 17.5q-25 0 -41.5 -17t-16.5 -43q0 -25 16.5 -42t41.5 -17q24 0 40.5 17t16.5 42z" />
    <glyph glyph-name="ae" unicode="&#xe6;" horiz-adv-x="732" 
d="M411 294h202q5 128 -80 128q-39 0 -72.5 -34.5t-49.5 -93.5zM334 75q-104 -85 -190 -85q-56 0 -90 31.5t-34 89.5q0 170 307 196l3 17q15 89 -72 89q-62 0 -151 -42v78q92 38 163 38q106 0 132 -64q59 64 135 64t118.5 -49t42.5 -135q0 -39 -7 -74h-292q-2 -24 -2 -37
q0 -129 111 -129q72 0 157 62v-80q-80 -55 -171 -55q-114 0 -160 85zM314 245q-118 -14 -162.5 -47t-44.5 -81q0 -54 60 -54q55 0 147 73q-4 20 -4 47q0 35 4 62z" />
    <glyph glyph-name="ccedilla" unicode="&#xe7;" horiz-adv-x="426" 
d="M420 446l-27 -81q-60 45 -117 45q-61 0 -107.5 -64.5t-46.5 -151.5q0 -61 30 -94.5t83 -33.5q59 0 124 45v-81q-63 -40 -135 -40q-87 0 -138 52.5t-51 145.5q0 123 70.5 211t173.5 88q79 0 141 -41zM267 -74l-140 -108h-64l98 133z" />
    <glyph glyph-name="egrave" unicode="&#xe8;" horiz-adv-x="456" 
d="M313 547h-56l-114 127l107 24zM135 294h202q5 128 -80 128q-39 0 -72 -34t-50 -94zM123 229q-2 -26 -2 -41q0 -125 111 -125q72 0 157 62v-80q-80 -55 -171 -55q-84 0 -134 49.5t-50 143.5q0 134 68.5 219t158.5 85q76 0 118.5 -49t42.5 -135q0 -39 -7 -74h-292z" />
    <glyph glyph-name="eacute" unicode="&#xe9;" horiz-adv-x="456" 
d="M452 674l-152 -127h-68l108 151zM135 294h202q5 128 -80 128q-39 0 -72 -34t-50 -94zM123 229q-2 -26 -2 -41q0 -125 111 -125q72 0 157 62v-80q-80 -55 -171 -55q-84 0 -134 49.5t-50 143.5q0 134 68.5 219t158.5 85q76 0 118.5 -49t42.5 -135q0 -39 -7 -74h-292z" />
    <glyph glyph-name="ecircumflex" unicode="&#xea;" horiz-adv-x="456" 
d="M417 554l-47 -10l-75 74l-99 -71h-58l123 141h84zM135 294h202q5 128 -80 128q-39 0 -72 -34t-50 -94zM123 229q-2 -26 -2 -41q0 -125 111 -125q72 0 157 62v-80q-80 -55 -171 -55q-84 0 -134 49.5t-50 143.5q0 134 68.5 219t158.5 85q76 0 118.5 -49t42.5 -135
q0 -39 -7 -74h-292z" />
    <glyph glyph-name="edieresis" unicode="&#xeb;" horiz-adv-x="456" 
d="M420 551h-99l16 101h99zM241 551h-99l16 101h99zM135 294h202q5 128 -80 128q-39 0 -72 -34t-50 -94zM123 229q-2 -26 -2 -41q0 -125 111 -125q72 0 157 62v-80q-80 -55 -171 -55q-84 0 -134 49.5t-50 143.5q0 134 68.5 219t158.5 85q76 0 118.5 -49t42.5 -135
q0 -39 -7 -74h-292z" />
    <glyph glyph-name="igrave" unicode="&#xec;" horiz-adv-x="230" 
d="M195 547h-53l-96 127l96 24zM195 477l-75 -477h-86l75 477h86z" />
    <glyph glyph-name="iacute" unicode="&#xed;" horiz-adv-x="230" 
d="M322 674l-129 -127h-63l92 151zM195 477l-75 -477h-86l75 477h86z" />
    <glyph glyph-name="icircumflex" unicode="&#xee;" horiz-adv-x="230" 
d="M287 554l-42 -10l-67 74l-90 -71h-52l114 141h75zM195 477l-75 -477h-86l75 477h86z" />
    <glyph glyph-name="idieresis" unicode="&#xef;" horiz-adv-x="230" 
d="M289 551h-89l16 101h89zM130 551h-89l16 101h89zM195 477l-75 -477h-86l75 477h86z" />
    <glyph glyph-name="eth" unicode="&#xf0;" horiz-adv-x="508" 
d="M389 307q-34 39 -65 56t-70 17q-57 0 -92.5 -56t-35.5 -135q0 -64 26 -98t73 -34q58 0 104.5 72.5t59.5 177.5zM340 554l-38 -47h-76q1 1 3 3.5l8 10t11.5 15t12.5 16.5t13 16.5t11 14t8 9.5l3 4q-37 28 -98 51l12 76q77 -25 133 -66l51 65l70 -14l-75 -93
q86 -92 86 -245q0 -95 -30.5 -180t-83.5 -138q-62 -62 -144 -62q-78 0 -128 52.5t-50 148.5q0 106 62 182t155 76q74 0 137 -60q-3 102 -53 165z" />
    <glyph glyph-name="ntilde" unicode="&#xf1;" horiz-adv-x="495" 
d="M455 380q0 -18 -2 -36l-55 -344h-86l52 325q2 18 2 27q0 58 -49 58q-27 0 -69.5 -33t-84.5 -86l-45 -291h-86l57 363v114h77l5 -95q96 105 172 105q54 0 83 -28t29 -79zM468 664q-32 -114 -101 -114q-29 0 -67 23q-44 25 -61 25q-22 0 -40 -51l-57 12q32 114 101 114
q29 0 67 -23q44 -25 61 -25q22 0 40 51z" />
    <glyph glyph-name="ograve" unicode="&#xf2;" horiz-adv-x="489" 
d="M454 283q0 -122 -67.5 -207.5t-170.5 -85.5q-83 0 -132 53.5t-49 149.5q0 122 67.5 208t169.5 86q84 0 133 -54t49 -150zM367 281q0 69 -27.5 103t-72.5 34q-66 0 -105.5 -68t-39.5 -154q0 -70 27 -104t73 -34q66 0 105.5 68.5t39.5 154.5zM324 547h-56l-114 127l107 24z
" />
    <glyph glyph-name="oacute" unicode="&#xf3;" horiz-adv-x="489" 
d="M474 674l-152 -127h-68l108 151zM454 283q0 -122 -67.5 -207.5t-170.5 -85.5q-83 0 -132 53.5t-49 149.5q0 122 67.5 208t169.5 86q84 0 133 -54t49 -150zM367 281q0 69 -27.5 103t-72.5 34q-66 0 -105.5 -68t-39.5 -154q0 -70 27 -104t73 -34q66 0 105.5 68.5
t39.5 154.5z" />
    <glyph glyph-name="ocircumflex" unicode="&#xf4;" horiz-adv-x="489" 
d="M454 283q0 -122 -67.5 -207.5t-170.5 -85.5q-83 0 -132 53.5t-49 149.5q0 122 67.5 208t169.5 86q84 0 133 -54t49 -150zM367 281q0 69 -27.5 103t-72.5 34q-66 0 -105.5 -68t-39.5 -154q0 -70 27 -104t73 -34q66 0 105.5 68.5t39.5 154.5zM428 554l-47 -10l-75 74
l-99 -71h-58l123 141h84z" />
    <glyph glyph-name="otilde" unicode="&#xf5;" horiz-adv-x="489" 
d="M454 283q0 -122 -67.5 -207.5t-170.5 -85.5q-83 0 -132 53.5t-49 149.5q0 122 67.5 208t169.5 86q84 0 133 -54t49 -150zM367 281q0 69 -27.5 103t-72.5 34q-66 0 -105.5 -68t-39.5 -154q0 -70 27 -104t73 -34q66 0 105.5 68.5t39.5 154.5zM464 664q-32 -114 -101 -114
q-29 0 -67 23q-44 25 -61 25q-22 0 -40 -51l-57 12q32 114 101 114q29 0 67 -23q44 -25 61 -25q22 0 40 51z" />
    <glyph glyph-name="odieresis" unicode="&#xf6;" horiz-adv-x="489" 
d="M454 283q0 -122 -67.5 -207.5t-170.5 -85.5q-83 0 -132 53.5t-49 149.5q0 122 67.5 208t169.5 86q84 0 133 -54t49 -150zM367 281q0 69 -27.5 103t-72.5 34q-66 0 -105.5 -68t-39.5 -154q0 -70 27 -104t73 -34q66 0 105.5 68.5t39.5 154.5zM431 551h-99l16 101h99z
M252 551h-99l16 101h99z" />
    <glyph glyph-name="divide" unicode="&#xf7;" horiz-adv-x="572" 
d="M371 467h-98l17 107h98zM528 301h-464l12 74h464zM314 102h-98l17 107h98z" />
    <glyph glyph-name="oslash" unicode="&#xf8;" horiz-adv-x="489" 
d="M366 331q-216 -247 -217 -247q26 -29 69 -29q70 0 111.5 68.5t41.5 153.5q0 27 -5 54zM123 147l216 246q-25 28 -68 28q-70 0 -111.5 -67.5t-41.5 -149.5q0 -29 5 -57zM59 79q-24 50 -24 114q0 122 67.5 208t169.5 86q71 0 116 -39l33 37l71 -16l-63 -71q25 -48 25 -115
q0 -122 -67.5 -207.5t-170.5 -85.5q-70 0 -116 38l-33 -36l-71 16z" />
    <glyph glyph-name="ugrave" unicode="&#xf9;" horiz-adv-x="495" 
d="M463 477l-57 -363v-114h-77l-5 95q-96 -105 -172 -105q-54 0 -83 28t-29 79q0 18 2 36l55 344h86l-52 -325q-2 -18 -2 -27q0 -58 49 -58q27 0 69.5 33t84.5 86l45 291h86zM321 547h-56l-114 127l107 24z" />
    <glyph glyph-name="uacute" unicode="&#xfa;" horiz-adv-x="495" 
d="M463 477l-57 -363v-114h-77l-5 95q-96 -105 -172 -105q-54 0 -83 28t-29 79q0 18 2 36l55 344h86l-52 -325q-2 -18 -2 -27q0 -58 49 -58q27 0 69.5 33t84.5 86l45 291h86zM461 674l-152 -127h-68l108 151z" />
    <glyph glyph-name="ucircumflex" unicode="&#xfb;" horiz-adv-x="495" 
d="M463 477l-57 -363v-114h-77l-5 95q-96 -105 -172 -105q-54 0 -83 28t-29 79q0 18 2 36l55 344h86l-52 -325q-2 -18 -2 -27q0 -58 49 -58q27 0 69.5 33t84.5 86l45 291h86zM433 554l-47 -10l-75 74l-99 -71h-58l123 141h84z" />
    <glyph glyph-name="udieresis" unicode="&#xfc;" horiz-adv-x="495" 
d="M463 477l-57 -363v-114h-77l-5 95q-96 -105 -172 -105q-54 0 -83 28t-29 79q0 18 2 36l55 344h86l-52 -325q-2 -18 -2 -27q0 -58 49 -58q27 0 69.5 33t84.5 86l45 291h86zM438 551h-99l16 101h99zM259 551h-99l16 101h99z" />
    <glyph glyph-name="yacute" unicode="&#xfd;" horiz-adv-x="450" 
d="M466 477l-264 -528q-37 -74 -78.5 -102.5t-103.5 -28.5q-13 0 -31 4v76q25 -5 46 -5q49 0 79 54l34 62l-89 461l87 14l61 -374l170 367h89zM445 665l-152 -127h-68l108 151z" />
    <glyph glyph-name="thorn" unicode="&#xfe;" horiz-adv-x="504" 
d="M472 318q0 -145 -81 -234.5t-190 -89.5q-42 0 -82 11l-28 -178l-88 -13l140 894l89 14l-48 -303q72 68 145 68q64 0 103.5 -44t39.5 -125zM385 304q0 108 -77 108q-56 0 -138 -84l-39 -248q32 -14 77 -14q70 0 123.5 64t53.5 174z" />
    <glyph glyph-name="ydieresis" unicode="&#xff;" horiz-adv-x="450" 
d="M466 477l-264 -528q-37 -74 -78.5 -102.5t-103.5 -28.5q-13 0 -31 4v76q25 -5 46 -5q49 0 79 54l34 62l-89 461l87 14l61 -374l170 367h89zM413 551h-99l16 101h99zM234 551h-99l16 101h99z" />
    <glyph glyph-name="dotlessi" unicode="&#x131;" horiz-adv-x="230" 
d="M195 477l-75 -477h-86l75 477h86z" />
    <glyph glyph-name="Lslash" unicode="&#x141;" horiz-adv-x="464" 
d="M400 0h-332l49 311l-77 -16v82l91 19l46 294h92l-44 -274l166 34l-13 -84l-166 -35l-39 -249h227v-82z" />
    <glyph glyph-name="lslash" unicode="&#x142;" horiz-adv-x="289" 
d="M205 347l-55 -347h-87l52 329l-78 -17l-2 78l93 19l47 299l89 14l-46 -295l87 18l-13 -80z" />
    <glyph glyph-name="OE" unicode="&#x152;" horiz-adv-x="820" 
d="M847 690l-13 -82h-254l-32 -205h196v-84h-209l-38 -237h263l-13 -82h-381q-142 0 -222 73.5t-80 207.5q0 190 114.5 299.5t298.5 109.5h370zM489 609h-23q-142 0 -224.5 -83.5t-82.5 -234.5q0 -104 55.5 -157t161.5 -53h30z" />
    <glyph glyph-name="oe" unicode="&#x153;" horiz-adv-x="782" 
d="M461 294h202q5 128 -80 128q-39 0 -72 -34t-50 -94zM367 286q0 66 -27.5 99t-72.5 33q-67 0 -106 -69t-39 -158q0 -66 27 -99.5t73 -33.5q67 0 106 68.5t39 159.5zM387 81q-65 -91 -171 -91q-83 0 -132 53.5t-49 149.5q0 122 67.5 208t169.5 86q113 0 154 -95
q64 95 161 95q76 0 118.5 -49t42.5 -135q0 -39 -7 -74h-292q-2 -26 -2 -41q0 -125 111 -125q72 0 157 62v-80q-80 -55 -171 -55q-116 0 -157 91z" />
    <glyph glyph-name="Scaron" unicode="&#x160;" horiz-adv-x="503" 
d="M486 652l-26 -86q-78 55 -151 55q-55 0 -83.5 -29.5t-28.5 -72.5q0 -34 23 -60t84 -62q83 -49 115 -94t32 -105q0 -98 -65.5 -153t-160.5 -55q-110 0 -202 58l26 87q90 -66 181 -66q56 0 92 31.5t36 85.5q0 38 -20.5 63t-77.5 60q-85 52 -120.5 93.5t-35.5 102.5
q0 85 59.5 140t155.5 55q98 0 167 -48zM486 888l-122 -141h-84l-72 134l48 10l75 -74l97 71h58z" />
    <glyph glyph-name="scaron" unicode="&#x161;" horiz-adv-x="388" 
d="M367 449l-26 -80q-63 42 -127 42q-33 0 -52 -16t-19 -38q0 -23 14.5 -37t56.5 -32q73 -32 104 -63.5t31 -83.5q0 -72 -48.5 -111.5t-126.5 -39.5q-92 0 -169 55l26 78q76 -58 156 -58q36 0 58 17.5t22 46.5q0 24 -17 40.5t-59 35.5q-72 33 -101 62t-29 78q0 64 44.5 103
t119.5 39q70 0 142 -38zM402 688l-122 -141h-84l-72 134l48 10l75 -74l97 71h58z" />
    <glyph glyph-name="Ydieresis" unicode="&#x178;" horiz-adv-x="606" 
d="M655 690l-303 -416l-43 -274h-92l44 274l-167 403l95 20l131 -337l231 330h104zM517 733h-99l16 101h99zM338 733h-99l16 101h99z" />
    <glyph glyph-name="Zcaron" unicode="&#x17d;" horiz-adv-x="577" 
d="M598 690l-11 -67l-451 -544h362v-79h-487l11 67l451 544h-336v79h461zM524 879l-122 -141h-84l-72 134l48 10l75 -74l97 71h58z" />
    <glyph glyph-name="zcaron" unicode="&#x17e;" horiz-adv-x="434" 
d="M424 477l-12 -67l-301 -339h249v-71h-363l11 67l302 339h-225v71h339zM426 688l-122 -141h-84l-72 134l48 10l75 -74l97 71h58z" />
    <glyph glyph-name="florin" unicode="&#x192;" horiz-adv-x="359" 
d="M369 603q-22 3 -46 3q-61 0 -73 -70l-14 -83h91v-74h-103l-60 -379h-89l61 379h-70l12 74h70l14 90q11 74 50 107.5t113 33.5q24 0 44 -2v-79z" />
    <glyph glyph-name="circumflex" unicode="&#x2c6;" 
d="M413 554l-47 -10l-75 74l-99 -71h-58l123 141h84z" />
    <glyph glyph-name="caron" unicode="&#x2c7;" 
d="M440 688l-122 -141h-84l-72 134l48 10l75 -74l97 71h58z" />
    <glyph glyph-name="breve" unicode="&#x2d8;" 
d="M430 693q-10 -68 -49.5 -106.5t-99.5 -38.5t-90.5 38.5t-21.5 98.5l63 13q-3 -76 60 -76q55 0 77 71h61z" />
    <glyph glyph-name="dotaccent" unicode="&#x2d9;" 
d="M327 551h-100l16 101h100z" />
    <glyph glyph-name="ring" unicode="&#x2da;" 
d="M393 647q0 -45 -29 -73.5t-74 -28.5t-74.5 28.5t-29.5 73.5q0 44 29.5 74t74.5 30t74 -29.5t29 -74.5zM347 647q0 25 -16.5 42.5t-40.5 17.5q-25 0 -41.5 -17t-16.5 -43q0 -25 16.5 -42t41.5 -17q24 0 40.5 17t16.5 42z" />
    <glyph glyph-name="ogonek" unicode="&#x2db;" 
d="M262 -182h-56l-105 108l108 25z" />
    <glyph glyph-name="tilde" unicode="&#x2dc;" 
d="M449 664q-31 -114 -101 -114q-29 0 -67 23q-44 25 -61 25q-22 0 -40 -51l-57 12q31 114 101 114q29 0 67 -23q44 -25 61 -25q22 0 40 51z" />
    <glyph glyph-name="hungarumlaut" unicode="&#x2dd;" 
d="M467 676l-149 -125h-56l108 147zM307 676l-149 -125h-55l107 147z" />
    <glyph glyph-name="Delta" unicode="&#x394;" horiz-adv-x="500" 
d="M25 -200v1000h450v-1000h-450z" />
    <glyph glyph-name="Omega" unicode="&#x3a9;" horiz-adv-x="588" 
d="M344 637q-27 3 -43 3q-59 0 -70 -68l-16 -95h89v-72h-101l-90 -578l-88 -13l92 591h-67l12 72h67l18 110q11 66 48.5 96t106.5 30q22 0 42 -2v-74zM638 637q-27 3 -43 3q-59 0 -70 -68l-16 -95h89v-72h-100l-91 -578l-88 -13l92 591h-67l12 72h67l18 110q11 66 48.5 96
t107.5 30q21 0 41 -2v-74z" />
    <glyph glyph-name="pi" unicode="&#x3c0;" horiz-adv-x="799" 
d="M761 346q0 -160 -96.5 -259.5t-249.5 -99.5q-154 0 -249.5 98.5t-95.5 258.5t96.5 259.5t249.5 99.5q154 0 249.5 -98.5t95.5 -258.5zM717 345q0 151 -85 236.5t-216 85.5q-133 0 -217.5 -85.5t-84.5 -236.5t85 -236.5t217 -85.5t216.5 85.5t84.5 236.5zM561 426
q0 -60 -38.5 -91t-106.5 -31h-42v-154h-67v394h116q64 0 101 -31t37 -87zM494 424q0 60 -74 60h-46v-120h44q76 0 76 60z" />
    <glyph glyph-name="endash" unicode="&#x2013;" 
d="M400 242h-345l13 84h345z" />
    <glyph glyph-name="emdash" unicode="&#x2014;" horiz-adv-x="908" 
d="M854 243h-799l13 82h799z" />
    <glyph glyph-name="quoteleft" unicode="&#x2018;" horiz-adv-x="227" 
d="M82 465l119 233l48 -12l-64 -221h-103z" />
    <glyph glyph-name="quoteright" unicode="&#x2019;" horiz-adv-x="227" 
d="M251 690l-119 -233l-48 12l64 221h103z" />
    <glyph glyph-name="quotesinglbase" unicode="&#x201a;" horiz-adv-x="227" 
d="M158 119l-119 -233l-48 12l64 221h103z" />
    <glyph glyph-name="quotedblleft" unicode="&#x201c;" horiz-adv-x="409" 
d="M82 465l119 233l48 -12l-64 -221h-103zM264 465l119 233l48 -12l-64 -221h-103z" />
    <glyph glyph-name="quotedblright" unicode="&#x201d;" horiz-adv-x="409" 
d="M251 690l-119 -233l-48 12l64 221h103zM433 690l-119 -233l-48 12l64 221h103z" />
    <glyph glyph-name="quotedblbase" unicode="&#x201e;" horiz-adv-x="409" 
d="M158 119l-119 -233l-48 12l64 221h103zM340 119l-119 -233l-48 12l64 221h103z" />
    <glyph glyph-name="dagger" unicode="&#x2020;" horiz-adv-x="499" 
d="M348 611l-44 -135h-34v135l12 79h78zM479 399h-29l-131 21l4 33l139 22h29zM239 420l-139 -21h-29l12 76h29l131 -22zM251 17l-42 -131h-31v131l42 262l38 119h34v-119z" />
    <glyph glyph-name="daggerdbl" unicode="&#x2021;" horiz-adv-x="518" 
d="M356 611l-43 -135h-34v135l12 79h78zM488 399h-29l-132 21l5 33l138 22h29zM247 420l-139 -21h-29l12 76h29l132 -22zM293 230l-38 -119h-34v119l7 49l38 119h35v-119zM430 34h-29l-132 21l5 33l139 22h29zM189 55l-138 -21h-29l12 76h29l131 -22zM231 -182h-78l12 79
l43 136h34v-136z" />
    <glyph glyph-name="bullet" unicode="&#x2022;" horiz-adv-x="421" 
d="M360 345l-19 -123l-113 -18l-113 18l-20 123l20 124l113 17l113 -17z" />
    <glyph glyph-name="ellipsis" unicode="&#x2026;" horiz-adv-x="726" 
d="M617 0h-100l19 119h100zM376 0h-100l19 119h100zM135 0h-100l19 119h100z" />
    <glyph glyph-name="perthousand" unicode="&#x2030;" horiz-adv-x="799" 
d="M761 346q0 -160 -96.5 -259.5t-249.5 -99.5q-154 0 -249.5 98.5t-95.5 258.5t96.5 259.5t249.5 99.5q154 0 249.5 -98.5t95.5 -258.5zM717 345q0 151 -85 236.5t-216 85.5q-133 0 -217.5 -85.5t-84.5 -236.5t85 -236.5t217 -85.5t216.5 85.5t84.5 236.5zM473 318
l114 -152l-71 -16l-114 156h-41v-151h-67v394h115q64 0 102.5 -32.5t38.5 -88.5q0 -82 -77 -110zM407 490h-46v-127h44q36 0 56.5 16.5t20.5 46.5t-19.5 47t-55.5 17z" />
    <glyph glyph-name="guilsinglleft" unicode="&#x2039;" horiz-adv-x="321" 
d="M315 477l-185 -243l102 -223l-72 -16l-125 244l195 238h85z" />
    <glyph glyph-name="guilsinglright" unicode="&#x203a;" horiz-adv-x="321" 
d="M6 0l186 242l-103 224l73 16l124 -244l-194 -238h-86z" />
    <glyph glyph-name="fraction" unicode="&#x2044;" 
d="M620 766l-675 -874l-81 18l675 874z" />
    <glyph glyph-name="trademark" unicode="&#x2122;" horiz-adv-x="799" 
d="M793 345h-60l-19 240l-98 -241h-47l-98 241l-20 -240h-58l27 345h71l103 -258l102 258h69zM359 636h-111v-291h-60v291h-108v54h270z" />
    <glyph glyph-name="partialdiff" unicode="&#x2202;" horiz-adv-x="696" 
d="M456 113l-148 127l110 22l93 -84q58 92 58 224q0 105 -45.5 163.5t-129.5 58.5q-104 0 -172 -96t-68 -240q0 -105 45.5 -163.5t128.5 -58.5q70 0 128 47zM576 121l56 -49l-31 -86l-83 73q-86 -72 -194 -72q-128 0 -196 81.5t-68 214.5q0 180 97.5 300t241.5 120
q128 0 196 -81.5t68 -214.5q0 -167 -87 -286z" />
    <glyph glyph-name="product" unicode="&#x220f;" horiz-adv-x="500" 
d="M25 -200v1000h450v-1000h-450z" />
    <glyph glyph-name="summation" unicode="&#x2211;" horiz-adv-x="982" 
d="M520 388l-206 -391h-79l-138 680l95 20l105 -570l197 379l-38 171l95 20l114 -570l263 563h99l-342 -693h-79z" />
    <glyph glyph-name="minus" unicode="&#x2212;" horiz-adv-x="500" 
d="M25 -200v1000h450v-1000h-450z" />
    <glyph glyph-name="radical" unicode="&#x221a;" horiz-adv-x="818" 
d="M344 637q-27 3 -43 3q-59 0 -70 -68l-16 -95h89v-72h-101l-90 -578l-88 -13l92 591h-67l12 72h67l18 110q11 66 48.5 96t106.5 30q22 0 42 -2v-74zM638 637q-27 3 -43 3q-59 0 -70 -68l-16 -95h89v-72h-100l-91 -578l-88 -13l92 591h-67l12 72h67l18 110q11 66 48.5 96
t107.5 30q21 0 41 -2v-74zM823 722l-115 -722h-86l112 708z" />
    <glyph glyph-name="infinity" unicode="&#x221e;" horiz-adv-x="466" 
d="M322 245q-122 -13 -168.5 -46t-46.5 -82q0 -55 57 -55q50 0 138 70zM302 67q-91 -77 -163 -77q-53 0 -86 31.5t-33 89.5q0 81 72 131.5t240 64.5l3 17q14 89 -72 89q-67 0 -156 -42v78q92 38 168 38q172 0 145 -169l-36 -219v-99h-77z" />
    <glyph glyph-name="integral" unicode="&#x222b;" horiz-adv-x="489" 
d="M147 38q-45 -19 -69 -42.5t-24 -45.5q0 -32 36.5 -49.5t104.5 -17.5q64 0 100.5 20t36.5 49q0 20 -17 33t-62 24l-61 15q-32 8 -45 14zM337 336q0 40 -24 63.5t-65 23.5q-48 0 -76 -34.5t-28 -82.5q0 -38 23 -61.5t64 -23.5q49 0 77.5 33.5t28.5 81.5zM374 444l128 40
v-80l-92 -10q11 -27 11 -56q0 -78 -58 -128.5t-139 -50.5q-23 0 -42 4q-24 -17 -24 -33q0 -12 16 -19.5t62 -18.5l41 -10q71 -17 104.5 -44.5t33.5 -72.5q0 -67 -61 -107t-163 -40q-100 0 -161.5 31.5t-61.5 85.5q0 41 27.5 73t91.5 62q-20 20 -20 42q0 38 58 72
q-65 40 -65 118t55 130.5t137 52.5q75 0 122 -41z" />
    <glyph glyph-name="approxequal" unicode="&#x2248;" horiz-adv-x="818" 
d="M344 637q-27 3 -43 3q-59 0 -70 -68l-16 -95h89v-72h-101l-90 -578l-88 -13l92 591h-67l12 72h67l18 110q11 66 48.5 96t106.5 30q22 0 42 -2v-74zM638 637q-27 3 -43 3q-59 0 -70 -68l-16 -95h89v-72h-100l-91 -578l-88 -13l92 591h-67l12 72h67l18 110q11 66 48.5 96
t107.5 30q21 0 41 -2v-74zM822 632q0 -23 -16.5 -39t-39.5 -16t-39 16t-16 39t16 39t39 16t39.5 -16t16.5 -39zM784 477l-76 -477h-86l75 477h87z" />
    <glyph glyph-name="notequal" unicode="&#x2260;" horiz-adv-x="494" 
d="M441 210q0 -103 -68 -163t-178 -60q-99 0 -194 56l27 80q88 -58 174 -58q68 0 109.5 39t41.5 101q0 118 -161 118h-30v63l216 211h-268v79h396l-11 -68l-227 -219q173 -21 173 -179z" />
    <glyph glyph-name="lessequal" unicode="&#x2264;" horiz-adv-x="834" 
d="M718 0h-85l86 549l-309 -552h-70l-133 552l-86 -549h-82l109 690h115l135 -566l314 566h115z" />
    <glyph glyph-name="greaterequal" unicode="&#x2265;" horiz-adv-x="656" 
d="M645 690l-109 -690h-73v79q-61 -43 -111.5 -65t-106.5 -22q-178 0 -178 158q0 23 5 60l76 480h92l-74 -468q-4 -23 -4 -48q0 -52 25 -76t78 -24q88 0 205 94l83 522h92z" />
    <glyph glyph-name="lozenge" unicode="&#x25ca;" horiz-adv-x="799" 
d="M793 345h-60l-19 240l-98 -241h-47l-98 241l-20 -240h-58l27 345h71l103 -258l102 258h69zM216 340q-57 0 -99 25l7 58q52 -32 93 -32q24 0 39.5 11.5t15.5 31.5q0 21 -12.5 34t-44.5 27q-54 24 -74.5 45.5t-20.5 61.5q0 41 30.5 67t79.5 26q50 0 84 -21l-10 -57
q-41 27 -76 27q-24 0 -38 -10.5t-14 -26.5q0 -20 12 -31.5t45 -26.5q54 -24 74.5 -46.5t20.5 -64.5q0 -45 -30.5 -71.5t-81.5 -26.5z" />
    <glyph glyph-name="apple" unicode="&#xf8ff;" horiz-adv-x="694" 
d="M644 -200h-208l-8 14h-163l-8 -14h-207v303q14 0 23 9.5t9 22.5t-9.5 22.5t-22.5 9.5v554h100l30 79h334l29 -79h101v-921zM400 563v-172h15v78h38v14h-38v66h43v14h-58zM184 563v-172h15v79h47v-79h15v172h-15v-79h-47v79h-15zM460 394q8 -4 21 -4q31 0 31 36v137h-16
v-137q0 -22 -16 -22q-10 0 -20 6v-16zM523 323v-46h8v13l7 7l16 -20h9l-19 26l18 20h-10l-21 -24v24h-8zM488 292l10 -15h9l-12 17q10 3 10 15q0 5 -4.5 9.5t-11.5 4.5h-21v-46h8v15h12zM426 276q11 0 17.5 7t6.5 17q0 9 -7 16.5t-17 7.5t-16.5 -7.5t-6.5 -16.5
q0 -10 6.5 -17t16.5 -7zM370 301l-13 22h-9l18 -29v-17h8v17l18 29h-9zM193 323v-46h33v7h-25v13h22v7h-22v12h25v7h-33zM132 323v-46h8v32l25 -32h7v46h-8v-32l-25 32h-7zM241 323l15 -47h8l10 34h1l11 -34h8l14 47h-8l-10 -35h-1l-10 35h-8l-11 -35h-1l-10 35h-8zM327 479
q-12 22 -12 32q0 19 14 19q13 0 13 -19q0 -15 -15 -32zM342 423q-6 -21 -18 -21q-17 0 -17 27q0 18 15 33zM488 299h-12v17h11q10 0 10 -8q0 -9 -9 -9zM426 283q-15 0 -15 17q0 6 4.5 11.5t10.5 5.5q7 0 11.5 -5.5t4.5 -11.5q0 -7 -4.5 -12t-11.5 -5zM349 438l-16 31
q23 21 23 42q0 12 -7 21.5t-20 9.5q-12 0 -20 -9.5t-8 -21.5q0 -13 14 -39q-23 -18 -23 -45q0 -17 9 -28t22 -11q17 0 27 24h1l12 -24l11 8l-16 30q10 23 13 39l-13 3q-2 -9 -9 -30z" />
    <glyph glyph-name="fi" unicode="&#xfb01;" horiz-adv-x="524" 
d="M344 637q-27 3 -43 3q-59 0 -70 -68l-16 -95h89v-72h-101l-90 -578l-88 -13l92 591h-67l12 72h67l18 110q11 66 48.5 96t106.5 30q22 0 42 -2v-74zM528 632q0 -23 -16.5 -39t-39.5 -16t-39 16t-16 39t16 39t39 16t39.5 -16t16.5 -39zM489 477l-75 -477h-86l75 477h86z
" />
    <glyph glyph-name="fl" unicode="&#xfb02;" horiz-adv-x="524" 
d="M344 637q-27 3 -43 3q-59 0 -70 -68l-16 -95h89v-72h-101l-90 -578l-88 -13l92 591h-67l12 72h67l18 110q11 66 48.5 96t106.5 30q22 0 42 -2v-74zM528 722l-114 -722h-86l111 708z" />
    <glyph glyph-name="NUL" horiz-adv-x="0" 
 />
    </font>
</defs>
</svg>
