<?xml version="1.0" standalone="no"?>
<!DOCTYPE svg PUBLIC "-//W3C//DTD SVG 1.1//EN" "http://www.w3.org/Graphics/SVG/1.1/DTD/svg11.dtd" >
<svg xmlns="http://www.w3.org/2000/svg" xmlns:xlink="http://www.w3.org/1999/xlink" version="1.1">
<metadata>
Created by FontForge 20170731 at Mon May  7 09:01:43 2007
 By Aleksey,,,
Copyright (C) 2004 Hoefler &#38; Frere-Jones Typography, Inc. www.typography.com
</metadata>
<defs>
<font id="Whitney-MediumItalicSC" horiz-adv-x="454" >
  <font-face 
    font-family="Whitney SC"
    font-weight="500"
    font-style="italic"
    font-stretch="normal"
    units-per-em="1000"
    panose-1="0 0 0 0 0 0 0 0 0 0"
    ascent="800"
    descent="-200"
    x-height="507"
    cap-height="690"
    bbox="-92 -200 1140 942"
    underline-thickness="20"
    underline-position="-173"
    slope="-12"
    unicode-range="U+0020-FB02"
  />
<missing-glyph horiz-adv-x="500" 
 />
    <glyph glyph-name=".notdef" horiz-adv-x="500" 
 />
    <glyph glyph-name=".null" horiz-adv-x="0" 
 />
    <glyph glyph-name="nonmarkingreturn" horiz-adv-x="333" 
 />
    <glyph glyph-name="space" unicode=" " horiz-adv-x="210" 
 />
    <glyph glyph-name="exclam" unicode="!" horiz-adv-x="272" 
d="M262 690l-99 -472l-61 -13l52 485h108zM167 119l-19 -119h-100l19 119h100z" />
    <glyph glyph-name="quotedbl" unicode="&#x22;" horiz-adv-x="409" 
d="M416 676l-58 -208l-50 12l6 196h102zM234 676l-58 -208l-50 12l6 196h102z" />
    <glyph glyph-name="numbersign" unicode="#" horiz-adv-x="558" 
d="M527 322h-105l-26 -138h102l11 -63h-126l-23 -121h-70l22 121h-118l-23 -126l-67 17l20 109h-92v63h104l27 138h-102l-12 64h125l24 121h71l-23 -121h117l25 125l67 -16l-21 -109h93v-64zM356 326h-125l-29 -145h126z" />
    <glyph glyph-name="dollar" unicode="$" horiz-adv-x="395" 
d="M165 58h10q48 0 75.5 21.5t27.5 60.5q0 26 -13.5 43t-50.5 35zM239 449h-13q-45 0 -68 -19t-23 -51q0 -22 13 -37t48 -33zM278 583l50 -12l-22 -69q45 -9 77 -31l-22 -67q-35 26 -78 38l-47 -152q61 -28 89 -60t28 -80q0 -73 -51.5 -113.5t-130.5 -40.5q-17 0 -25 1
l-33 -109l-49 12l33 104q-55 12 -101 40l22 68q56 -36 102 -47l53 171q-55 26 -82.5 56.5t-27.5 76.5q0 64 45.5 102.5t122.5 38.5q17 0 26 -1z" />
    <glyph glyph-name="percent" unicode="%" horiz-adv-x="651" 
d="M567 500l-402 -505l-59 14l402 506zM622 172q0 -72 -38.5 -125t-93.5 -53q-50 0 -76 33.5t-26 89.5q0 72 38 124.5t93 52.5q50 0 76.5 -33t26.5 -89zM560 173q0 71 -43 71q-30 0 -49 -39t-19 -91q0 -70 43 -70q30 0 49 39t19 90zM286 392q0 -72 -38.5 -124.5t-93.5 -52.5
q-50 0 -76 33t-26 90q0 72 38 125t93 53q50 0 76.5 -33.5t26.5 -90.5zM224 395q0 71 -43 71q-30 0 -48.5 -39.5t-18.5 -90.5q0 -71 42 -71q31 0 49.5 39t18.5 91z" />
    <glyph glyph-name="ampersand" unicode="&#x26;" horiz-adv-x="492" 
d="M449 12l-83 -17l-51 67q-71 -71 -161 -71q-68 0 -107.5 32.5t-39.5 90.5q0 109 142 168q-37 52 -37 101q0 58 40.5 95.5t106.5 37.5q76 0 131 -31l-24 -73q-63 36 -108 36q-28 0 -45.5 -16.5t-17.5 -41.5q0 -39 31 -80l96 -128q27 50 44 115l70 -16q-24 -85 -71 -157z
M278 112l-93 120q-92 -37 -92 -108q0 -30 20.5 -49.5t54.5 -19.5q59 0 110 57z" />
    <glyph glyph-name="quotesingle" unicode="'" horiz-adv-x="227" 
d="M234 676l-58 -208l-50 12l6 196h102z" />
    <glyph glyph-name="parenleft" unicode="(" horiz-adv-x="300" 
d="M296 461q-84 -56 -124 -125.5t-40 -160.5q0 -118 100 -229l-68 -15q-58 56 -88 113t-30 130q0 227 250 359v-72z" />
    <glyph glyph-name="parenright" unicode=")" horiz-adv-x="300" 
d="M270 287q0 -226 -249 -360v68q163 111 163 290q0 113 -103 229l72 16q57 -56 87 -113t30 -130z" />
    <glyph glyph-name="asterisk" unicode="*" horiz-adv-x="400" 
d="M401 569l-109 -52l58 -107l-26 -17l-82 87l-83 -87l-25 17l57 107l-108 52l10 29l118 -21l14 118h33l14 -118l119 21z" />
    <glyph glyph-name="plus" unicode="+" horiz-adv-x="572" 
d="M514 215h-193l-31 -199h-78l31 199h-193l12 74h193l31 199h78l-31 -199h193z" />
    <glyph glyph-name="comma" unicode="," horiz-adv-x="227" 
d="M166 119l-143 -252l-48 12l88 240h103z" />
    <glyph glyph-name="hyphen" unicode="-" horiz-adv-x="354" 
d="M311 327l-12 -85h-245l11 85h246z" />
    <glyph glyph-name="period" unicode="." horiz-adv-x="227" 
d="M144 119l-18 -119h-100l18 119h100z" />
    <glyph glyph-name="slash" unicode="/" horiz-adv-x="405" 
d="M462 538l-453 -612l-77 16l454 612z" />
    <glyph glyph-name="zero" unicode="0" horiz-adv-x="519" 
d="M482 308q0 -133 -74 -225t-182 -92q-82 0 -135.5 56t-53.5 152q0 134 73 226.5t180 92.5q83 0 137.5 -57t54.5 -153zM395 298q0 66 -31 104.5t-77 38.5q-70 0 -116.5 -68.5t-46.5 -165.5q0 -66 31.5 -103t77.5 -37q70 0 116 67t46 164z" />
    <glyph glyph-name="one" unicode="1" horiz-adv-x="323" 
d="M192 0h-87l68 422l-113 -40v74l140 58h72z" />
    <glyph glyph-name="two" unicode="2" horiz-adv-x="461" 
d="M381 0h-386l11 70l206 156q4 3 17.5 13.5t18 13.5t16.5 12.5t16 14t13.5 13.5t13.5 14.5t10 14.5t8.5 16.5t4.5 16t2 17.5q0 31 -24.5 49.5t-63.5 18.5q-78 0 -160 -51l-3 79q83 48 177 48q76 0 122.5 -35t46.5 -93q0 -32 -12 -59.5t-40.5 -56.5t-51 -47.5t-68.5 -52.5
l-132 -99h259z" />
    <glyph glyph-name="three" unicode="3" horiz-adv-x="473" 
d="M390 54q0 -103 -93.5 -171.5t-230.5 -68.5q-49 0 -84 6v78q58 -8 91 -8q102 0 166 47.5t64 114.5q0 46 -35.5 69.5t-100.5 23.5q-23 0 -39 -3l-16 -3v66l53 8q68 10 120 47t52 94q0 41 -28 63.5t-76 22.5q-85 0 -177 -60v79q91 57 182 57q86 0 136.5 -41t50.5 -110
q0 -65 -40.5 -111t-99.5 -67q105 -36 105 -133z" />
    <glyph glyph-name="four" unicode="4" horiz-adv-x="541" 
d="M480 1h-111l-28 -175l-79 -13l29 188h-305l10 64l350 450h104l-70 -441h112zM303 74l54 344l-263 -344h209z" />
    <glyph glyph-name="five" unicode="5" horiz-adv-x="464" 
d="M395 69q0 -109 -94 -182t-231 -73q-48 0 -82 6v78q58 -8 88 -8q100 0 165.5 52.5t65.5 121.5q0 47 -31 76.5t-88 29.5q-39 0 -84 -17l-62 18l77 334h316l1 -76h-258l-47 -196q37 10 74 10q85 0 137.5 -44.5t52.5 -129.5z" />
    <glyph glyph-name="six" unicode="6" horiz-adv-x="540" 
d="M496 247q0 -108 -69 -182t-173 -74q-89 0 -144.5 64t-55.5 180q0 184 115.5 303.5t308.5 160.5v-83q-238 -56 -310 -222q81 39 151 39q80 0 128.5 -49.5t48.5 -136.5zM410 238q0 61 -31 91.5t-86 30.5q-62 0 -146 -38q-6 -33 -6 -70q0 -89 31 -139t89 -50
q66 0 107.5 49.5t41.5 125.5z" />
    <glyph glyph-name="seven" unicode="7" horiz-adv-x="487" 
d="M470 439l-358 -626l-79 20l341 595h-308v79h416z" />
    <glyph glyph-name="eight" unicode="8" horiz-adv-x="532" 
d="M479 198q0 -86 -65.5 -148.5t-166.5 -62.5q-102 0 -159.5 49.5t-57.5 126.5q0 64 34.5 114.5t114.5 93.5q-71 53 -71 137q0 81 59.5 138t156.5 57q84 0 135 -45.5t51 -115.5q0 -61 -32 -105.5t-93 -82.5q94 -56 94 -156zM421 536q0 43 -29 69t-80 26q-56 0 -86 -33
t-30 -82q0 -40 26.5 -69.5t95.5 -61.5q103 60 103 151zM391 191q0 44 -31 78t-115 70q-64 -30 -96 -74t-32 -91q0 -52 38.5 -83.5t96.5 -31.5q63 0 101 37.5t38 94.5z" />
    <glyph glyph-name="nine" unicode="9" horiz-adv-x="540" 
d="M487 271q0 -183 -116 -303t-308 -160v83q231 54 304 212q-73 -32 -140 -32q-83 1 -133 51t-50 138q0 107 69.5 181.5t172.5 74.5q90 0 145.5 -64.5t55.5 -180.5zM391 174q9 41 9 80q0 89 -31 139.5t-89 50.5q-66 0 -107.5 -49.5t-41.5 -125.5q0 -63 32.5 -94t90.5 -31
q61 0 137 30z" />
    <glyph glyph-name="colon" unicode=":" horiz-adv-x="236" 
d="M205 477l-18 -119h-100l18 119h100zM149 119l-18 -119h-100l18 119h100z" />
    <glyph glyph-name="semicolon" unicode=";" horiz-adv-x="236" 
d="M210 477l-18 -119h-100l18 119h100zM161 119l-143 -252l-48 12l88 240h103z" />
    <glyph glyph-name="less" unicode="&#x3c;" horiz-adv-x="572" 
d="M464 -4l-411 222l10 68l483 222l-15 -89l-382 -170l328 -169z" />
    <glyph glyph-name="equal" unicode="=" horiz-adv-x="590" 
d="M531 324h-445l13 80h445zM496 100h-445l13 80h445z" />
    <glyph glyph-name="greater" unicode="&#x3e;" horiz-adv-x="572" 
d="M111 508l411 -222l-10 -68l-483 -222l15 89l382 170l-328 169z" />
    <glyph glyph-name="question" unicode="?" horiz-adv-x="484" 
d="M190 368l29 12q103 43 138.5 73t35.5 81q0 40 -27.5 63t-76.5 23q-88 0 -190 -72v90q96 65 205 65q85 0 134 -43t49 -114q0 -80 -49 -129.5t-176 -99.5l-25 -99l-60 -13zM242 119l-19 -119h-100l19 119h100z" />
    <glyph glyph-name="at" unicode="@" horiz-adv-x="826" 
d="M472 205l30 169q-27 9 -59 9q-53 0 -96 -58t-43 -145q0 -69 50 -69q44 0 118 94zM473 136q-42 -50 -73.5 -71t-68.5 -21q-44 0 -75 32t-31 90q0 122 69.5 201.5t158.5 79.5q63 0 135 -26l-35 -209q-6 -39 -6 -55q0 -31 17 -47.5t47 -16.5q55 0 89.5 56t34.5 154
q0 139 -79.5 213.5t-204.5 74.5q-149 0 -255 -116t-106 -290q0 -144 79 -217t209 -73q117 0 217 49l6 -36q-103 -48 -227 -48q-151 0 -239.5 85.5t-88.5 238.5q0 183 118.5 313t290.5 130q147 0 235 -88t88 -235q0 -115 -49.5 -187.5t-126.5 -72.5q-51 0 -85 23.5t-44 68.5z
" />
    <glyph glyph-name="A" unicode="A" horiz-adv-x="639" 
d="M578 13l-92 -20l-39 214h-255l-103 -207h-97l357 693h94zM431 288l-53 293l-146 -293h199z" />
    <glyph glyph-name="B" unicode="B" horiz-adv-x="527" 
d="M500 535q0 -63 -33.5 -107t-90.5 -65q105 -44 105 -147q0 -104 -76.5 -160t-203.5 -56h-162l109 690h150q99 0 150.5 -42t51.5 -113zM409 522q0 42 -28.5 66.5t-86.5 24.5h-68l-34 -214h57q72 0 116 31t44 92zM390 210q0 54 -37.5 84t-112.5 30h-59l-40 -247h71
q84 0 131 33t47 100z" />
    <glyph glyph-name="C" unicode="C" horiz-adv-x="599" 
d="M597 636l-28 -91q-75 75 -166 75q-110 0 -179.5 -98.5t-69.5 -230.5q0 -109 48 -165t131 -56q91 0 181 63v-89q-87 -56 -186 -56q-125 0 -196.5 77.5t-71.5 215.5q0 170 98.5 295.5t249.5 125.5q114 0 189 -66z" />
    <glyph glyph-name="D" unicode="D" horiz-adv-x="654" 
d="M623 409q0 -184 -112 -296q-113 -113 -301 -113h-171l109 690h173q142 0 222 -73.5t80 -207.5zM528 399q0 104 -55.5 157t-161.5 53h-84l-84 -528h78q140 0 221 81q86 86 86 237z" />
    <glyph glyph-name="E" unicode="E" horiz-adv-x="467" 
d="M494 690l-13 -82h-254l-32 -205h196v-84h-209l-38 -237h263l-13 -82h-355l109 690h346z" />
    <glyph glyph-name="F" unicode="F" horiz-adv-x="444" 
d="M483 690l-13 -82h-243l-34 -216h188v-84h-201l-49 -308h-92l109 690h335z" />
    <glyph glyph-name="G" unicode="G" horiz-adv-x="660" 
d="M610 377l-51 -325q-108 -64 -222 -64q-125 0 -202 78.5t-77 214.5q0 109 45.5 205.5t129 156t184.5 59.5q128 0 205 -58l-27 -91q-77 67 -187 67q-108 0 -181.5 -97.5t-73.5 -231.5q0 -108 52.5 -164.5t136.5 -56.5q78 0 136 34l29 189h-147v84h250z" />
    <glyph glyph-name="H" unicode="H" horiz-adv-x="656" 
d="M649 690l-109 -690h-92l50 319h-316l-51 -319h-92l109 690h92l-45 -287h317l45 287h92z" />
    <glyph glyph-name="I" unicode="I" horiz-adv-x="258" 
d="M245 690l-109 -690h-92l109 690h92z" />
    <glyph glyph-name="J" unicode="J" horiz-adv-x="361" 
d="M358 690l-81 -513q-15 -94 -62 -138.5t-130 -44.5q-47 0 -85 9v84q43 -12 79 -12q44 0 70.5 24t35.5 82l81 509h92z" />
    <glyph glyph-name="K" unicode="K" horiz-adv-x="573" 
d="M608 690l-328 -323l240 -353l-94 -21l-240 357l-55 -350h-92l109 690h92l-49 -308l306 308h111z" />
    <glyph glyph-name="L" unicode="L" horiz-adv-x="435" 
d="M370 0h-331l109 690h92l-97 -608h227v-82z" />
    <glyph glyph-name="M" unicode="M" horiz-adv-x="854" 
d="M811 690l-55 -690h-89l45 555l-290 -558h-71l-113 558l-130 -555h-85l163 690h115l109 -566l288 566h113z" />
    <glyph glyph-name="N" unicode="N" horiz-adv-x="654" 
d="M647 690l-109 -690h-57l-271 558l-88 -558h-83l109 690h91l246 -506l79 506h83z" />
    <glyph glyph-name="O" unicode="O" horiz-adv-x="696" 
d="M663 407q0 -180 -97.5 -300t-241.5 -120q-128 0 -196 81.5t-68 214.5q0 180 97.5 300t241.5 120q128 0 196 -81.5t68 -214.5zM569 402q0 105 -45.5 163.5t-129.5 58.5q-104 0 -172 -96t-68 -240q0 -105 45.5 -163.5t128.5 -58.5q105 0 173 96t68 240z" />
    <glyph glyph-name="P" unicode="P" horiz-adv-x="515" 
d="M517 508q0 -105 -75.5 -166t-212.5 -61h-54l-44 -281h-92l109 690h133q114 0 175 -46.5t61 -135.5zM424 497q0 112 -139 112h-58l-38 -247h56q179 0 179 135z" />
    <glyph glyph-name="Q" unicode="Q" horiz-adv-x="696" 
d="M594 -60l-29 -83l-299 128q-111 47 -158.5 113.5t-47.5 184.5q0 180 97.5 300t241.5 120q128 0 196 -81.5t68 -214.5q0 -145 -64.5 -252.5t-171.5 -146.5zM569 402q0 105 -45.5 163.5t-129.5 58.5q-104 0 -172 -96t-68 -240q0 -105 45.5 -164t128.5 -59q105 0 173 96.5
t68 240.5z" />
    <glyph glyph-name="R" unicode="R" horiz-adv-x="548" 
d="M517 518q0 -83 -48.5 -138t-137.5 -74l160 -292l-95 -21l-165 305h-53l-47 -298h-92l109 690h138q109 0 170 -42.5t61 -129.5zM424 507q0 102 -134 102h-63l-36 -233h66q83 0 125 34t42 97z" />
    <glyph glyph-name="S" unicode="S" horiz-adv-x="503" 
d="M486 652l-26 -86q-78 55 -151 55q-55 0 -83.5 -29.5t-28.5 -72.5q0 -34 23 -60t84 -62q83 -49 115 -94t32 -105q0 -98 -65.5 -153t-160.5 -55q-110 0 -202 58l26 87q90 -66 181 -66q56 0 92 31.5t36 85.5q0 38 -20.5 63t-77.5 60q-85 52 -120.5 93.5t-35.5 102.5
q0 85 59.5 140t155.5 55q98 0 167 -48z" />
    <glyph glyph-name="T" unicode="T" horiz-adv-x="561" 
d="M596 608h-210l-96 -608h-92l96 608h-205l13 82h494v-82z" />
    <glyph glyph-name="U" unicode="U" horiz-adv-x="637" 
d="M642 690l-73 -460q-20 -122 -92 -182.5t-180 -60.5q-107 0 -168.5 55.5t-61.5 161.5q0 31 7 75l65 411h92l-66 -416q-4 -27 -4 -61q0 -68 36.5 -105.5t106.5 -37.5q148 0 176 179l70 441h92z" />
    <glyph glyph-name="V" unicode="V" horiz-adv-x="628" 
d="M673 690l-361 -693h-76l-139 680l95 20l103 -566l279 559h99z" />
    <glyph glyph-name="W" unicode="W" horiz-adv-x="981" 
d="M1017 690l-309 -690h-79l-89 555l-267 -555h-77l-88 677l97 20l58 -545l254 538h93l81 -538l229 538h97z" />
    <glyph glyph-name="X" unicode="X" horiz-adv-x="599" 
d="M622 690l-254 -327l166 -350l-95 -20l-132 292l-215 -285h-104l282 362l-148 315l93 20l116 -258l187 251h104z" />
    <glyph glyph-name="Y" unicode="Y" horiz-adv-x="606" 
d="M655 690l-303 -416l-43 -274h-92l44 274l-167 403l95 20l131 -337l231 330h104z" />
    <glyph glyph-name="Z" unicode="Z" horiz-adv-x="577" 
d="M598 690l-11 -67l-451 -544h362v-79h-487l11 67l451 544h-336v79h461z" />
    <glyph glyph-name="bracketleft" unicode="[" horiz-adv-x="333" 
d="M324 507l-9 -55h-133l-76 -473h129v-55h-214l93 583h210z" />
    <glyph glyph-name="backslash" unicode="\" horiz-adv-x="401" 
d="M37 538l72 16l260 -612l-73 -16z" />
    <glyph glyph-name="bracketright" unicode="]" horiz-adv-x="333" 
d="M297 507l-92 -583h-210l9 55h133l75 473h-128v55h213z" />
    <glyph glyph-name="asciicircum" unicode="^" horiz-adv-x="480" 
d="M418 584l-48 -10l-75 74l-98 -71h-58l123 141h83z" />
    <glyph glyph-name="underscore" unicode="_" 
d="M413 -35l-11 -69h-457l11 69h457z" />
    <glyph glyph-name="grave" unicode="`" 
d="M369 577h-57l-113 127l107 24z" />
    <glyph glyph-name="a" unicode="a" horiz-adv-x="536" 
d="M346 203l-47 229h-1l-119 -229h167zM139 127l-66 -127h-92l279 513h100l116 -502l-86 -20l-28 136h-223z" />
    <glyph glyph-name="b" unicode="b" horiz-adv-x="470" 
d="M410 162q0 -77 -59 -119.5t-150 -42.5h-169l80 507h144q83 0 125 -31t42 -85q0 -87 -92 -125q79 -24 79 -104zM337 377q0 55 -84 55h-66l-21 -131h71q46 0 73 20.5t27 55.5zM325 161q0 68 -94 68h-77l-24 -155h76q53 0 86 23t33 64z" />
    <glyph glyph-name="c" unicode="c" horiz-adv-x="481" 
d="M403 27q-67 -37 -142 -37q-102 0 -161.5 59.5t-59.5 161.5q0 128 77 217t196 89q92 0 153 -47l-28 -82q-57 53 -128 53q-79 0 -128 -66t-49 -159q0 -73 36.5 -112t101.5 -39q63 0 132 40v-78z" />
    <glyph glyph-name="d" unicode="d" horiz-adv-x="548" 
d="M508 293q0 -122 -87.5 -207.5t-230.5 -85.5h-158l80 507h152q119 0 181.5 -57.5t62.5 -156.5zM415 288q0 68 -40.5 103.5t-113.5 35.5h-71l-55 -347h62q98 0 158 58t60 150z" />
    <glyph glyph-name="e" unicode="e" horiz-adv-x="435" 
d="M349 0h-318l81 507h311l-13 -79h-221l-20 -125h176v-79h-188l-23 -145h228z" />
    <glyph glyph-name="f" unicode="f" horiz-adv-x="409" 
d="M403 428h-213l-21 -133h167v-79h-180l-34 -216h-90l81 507h303z" />
    <glyph glyph-name="g" unicode="g" horiz-adv-x="524" 
d="M441 41q-90 -50 -182 -50q-102 0 -159.5 58t-57.5 165q0 127 77 214.5t205 87.5q97 0 163 -50l-26 -82q-64 57 -143 57q-87 0 -134.5 -66t-47.5 -153q0 -158 136 -158q48 0 91 20l19 118h-108v79h205z" />
    <glyph glyph-name="h" unicode="h" horiz-adv-x="553" 
d="M522 507l-81 -507h-91l36 223h-229l-36 -223h-90l81 507h90l-32 -202h229l32 202h91z" />
    <glyph glyph-name="i" unicode="i" horiz-adv-x="242" 
d="M126 0h-90l80 507h90z" />
    <glyph glyph-name="j" unicode="j" horiz-adv-x="315" 
d="M224 123q-10 -67 -54 -97.5t-104 -30.5q-55 0 -70 5v76q26 -6 59 -6q38 0 57 17t25 57l57 363h91z" />
    <glyph glyph-name="k" unicode="k" horiz-adv-x="484" 
d="M161 247l-40 -247h-90l81 507h90l-36 -228l227 228h108l-248 -243l183 -251l-92 -21z" />
    <glyph glyph-name="l" unicode="l" horiz-adv-x="398" 
d="M322 0h-290l80 507h90l-68 -429h188v-78z" />
    <glyph glyph-name="m" unicode="m" horiz-adv-x="737" 
d="M632 0h-90l35 415l-211 -417h-84l-79 417l-96 -415h-82l121 507h122l72 -407l204 407h129z" />
    <glyph glyph-name="n" unicode="n" horiz-adv-x="555" 
d="M443 0h-77l-192 380l-60 -380h-82l80 507h88l183 -366l58 366h82z" />
    <glyph glyph-name="o" unicode="o" horiz-adv-x="555" 
d="M515 298q0 -131 -78 -219t-183 -88q-100 0 -157 61t-57 157q0 131 78 219t183 88q100 0 157 -61t57 -157zM428 296q0 71 -34 108.5t-96 37.5q-70 0 -120.5 -66.5t-50.5 -164.5q0 -71 35 -109t98 -38q68 0 118 67t50 165z" />
    <glyph glyph-name="p" unicode="p" horiz-adv-x="441" 
d="M432 370q0 -84 -58.5 -130t-158.5 -46h-63l-30 -194h-90l80 507h145q85 0 130 -35t45 -102zM346 359q0 72 -97 72h-59l-26 -162h62q58 0 89 24t31 66z" />
    <glyph glyph-name="q" unicode="q" horiz-adv-x="557" 
d="M515 303q0 -112 -47.5 -183.5t-119.5 -104.5l126 -48l-26 -71l-218 84q-98 38 -144 85.5t-46 143.5q0 132 78.5 219.5t186.5 87.5q96 0 153 -61t57 -152zM428 296q0 71 -34 108.5t-96 37.5q-70 0 -120.5 -66.5t-50.5 -164.5q0 -71 35 -110t98 -39q68 0 118 68t50 166z
" />
    <glyph glyph-name="r" unicode="r" horiz-adv-x="473" 
d="M342 357q0 72 -101 72h-51l-26 -163h55q56 0 89.5 24t33.5 67zM302 208l113 -193l-92 -21l-115 202h-55l-31 -196h-90l80 507h133q188 0 188 -140q0 -59 -35.5 -100t-95.5 -59z" />
    <glyph glyph-name="s" unicode="s" horiz-adv-x="432" 
d="M377 150q0 -71 -54.5 -114.5t-140.5 -43.5q-93 0 -182 47l25 76q89 -49 168 -49q44 0 72 20.5t28 54.5q0 24 -18 41.5t-67 38.5q-75 32 -107 63t-32 81q0 64 51 106.5t128 42.5q86 0 154 -37l-25 -79q-73 42 -139 42q-38 0 -61.5 -19t-23.5 -46q0 -23 19.5 -40t74.5 -40
q70 -29 100 -61.5t30 -83.5z" />
    <glyph glyph-name="t" unicode="t" horiz-adv-x="461" 
d="M463 427h-164l-68 -427h-91l68 427h-157l12 80h400v-80z" />
    <glyph glyph-name="u" unicode="u" horiz-adv-x="550" 
d="M471 195q-16 -101 -75.5 -153t-153.5 -52q-85 0 -135.5 43t-50.5 114q0 28 5 56l48 304h90l-48 -300q-4 -28 -4 -54q0 -38 26 -62t76 -24q54 0 87.5 34t44.5 98l49 308h91z" />
    <glyph glyph-name="v" unicode="v" horiz-adv-x="519" 
d="M538 507l-281 -515h-84l-114 504l89 20l84 -413l210 404h96z" />
    <glyph glyph-name="w" unicode="w" horiz-adv-x="757" 
d="M772 507l-232 -510h-85l-53 406l-184 -406h-85l-68 498l90 20l39 -398l175 390h97l51 -390l163 390h92z" />
    <glyph glyph-name="x" unicode="x" horiz-adv-x="484" 
d="M192 264l-118 232l88 20l89 -190l138 181h105l-199 -245l131 -251l-88 -20l-101 211l-156 -202h-104q14 17 36 44.5t69 85.5t78 96z" />
    <glyph glyph-name="y" unicode="y" horiz-adv-x="484" 
d="M512 507l-235 -310l-31 -197h-91l31 196l-133 300l91 20l97 -240l168 231h103z" />
    <glyph glyph-name="z" unicode="z" horiz-adv-x="474" 
d="M388 0h-393l10 64l344 368h-252v75h373l-10 -64l-344 -369h272v-74z" />
    <glyph glyph-name="braceleft" unicode="{" horiz-adv-x="382" 
d="M375 507l-8 -54h-73q-59 0 -59 -61v-65q0 -52 -24.5 -77.5t-71.5 -35.5v-2q34 -8 49.5 -23.5t15.5 -45.5q0 -19 -14 -68.5t-14 -63.5q0 -34 46 -34h65v-53h-95q-93 0 -93 74q0 20 14.5 70t14.5 69q0 52 -67 52h-22v53h35q44 0 65 23t21 73v62q0 107 126 107h89z" />
    <glyph glyph-name="bar" unicode="|" horiz-adv-x="266" 
d="M173 -173l-80 -13v895l80 13v-895z" />
    <glyph glyph-name="braceright" unicode="}" horiz-adv-x="382" 
d="M331 189h-34q-45 0 -65.5 -22.5t-20.5 -72.5v-63q0 -107 -127 -107h-89l8 53h73q59 0 59 62v65q0 51 24.5 76.5t71.5 36.5v1q-34 8 -49.5 24t-15.5 46q0 19 14 68t14 63q0 34 -46 34h-64v54h94q43 0 68 -18.5t25 -55.5q0 -20 -14.5 -70t-14.5 -69q0 -52 68 -52h21v-53z
" />
    <glyph glyph-name="asciitilde" unicode="~" horiz-adv-x="409" 
d="M375 337q-31 -114 -101 -114q-29 0 -67 23q-44 25 -61 25q-22 0 -40 -51l-57 12q32 114 101 114q29 0 67 -23q44 -25 61 -25q22 0 40 51z" />
    <glyph glyph-name="nbspace" unicode="&#xa0;" horiz-adv-x="105" 
 />
    <glyph glyph-name="exclamdown" unicode="&#xa1;" horiz-adv-x="272" 
d="M258 690l-19 -119h-100l19 119h100zM204 485l-52 -485h-108l99 472z" />
    <glyph glyph-name="cent" unicode="&#xa2;" horiz-adv-x="463" 
d="M378 497q43 -12 77 -41l-25 -77q-33 32 -78 44l-105 -339h17q66 0 134 44v-76q-68 -43 -146 -43q-10 0 -28 2l-33 -108l-65 14l35 110q-52 23 -82.5 71.5t-30.5 115.5q0 121 70.5 206.5t187.5 85.5h6l33 106l65 -15zM290 431q-72 -1 -114 -62t-42 -143q0 -88 53 -122z
" />
    <glyph glyph-name="sterling" unicode="&#xa3;" horiz-adv-x="415" 
d="M359 0h-350l10 62l69 153h-56l12 71h76l49 108q29 63 67.5 92.5t98.5 29.5q42 0 79 -11l-19 -71q-31 11 -63 11q-29 0 -47.5 -15.5t-34.5 -49.5l-43 -94h123v-71h-156l-66 -146h251v-69z" />
    <glyph glyph-name="currency" unicode="&#xa4;" horiz-adv-x="499" 
d="M173 215v-1q0 -74 34 -113.5t94 -39.5q65 0 126 43v-75q-63 -38 -136 -38q-95 0 -150.5 57t-55.5 161v6h-62l12 71h59q22 100 90.5 165t161.5 65q86 0 143 -47l-24 -77q-58 53 -122 53q-59 0 -102.5 -44.5t-59.5 -114.5h199v-71h-207z" />
    <glyph glyph-name="yen" unicode="&#xa5;" 
d="M488 507l-214 -295h113v-68h-132l-23 -144h-80l22 144h-125l11 68h117l-116 284l84 16l91 -241l161 236h91z" />
    <glyph glyph-name="brokenbar" unicode="&#xa6;" horiz-adv-x="500" 
d="M25 -200v1000h450v-1000h-450z" />
    <glyph glyph-name="section" unicode="&#xa7;" horiz-adv-x="525" 
d="M498 366q0 -53 -41 -110l-74 17q33 45 33 80q0 21 -15.5 33.5t-57.5 23.5l-65 16q-70 17 -102.5 46t-32.5 80q0 60 46.5 96.5t128.5 36.5q87 0 166 -38l-23 -72q-76 41 -154 41q-39 0 -60.5 -16.5t-21.5 -40.5q0 -25 19.5 -38.5t69.5 -26.5l50 -13q68 -18 101 -42.5
t33 -72.5zM59 310q0 53 41 110l74 -17q-33 -45 -33 -80q0 -21 15.5 -33.5t57.5 -23.5l65 -16q70 -17 102.5 -46t32.5 -80q0 -60 -46.5 -96.5t-128.5 -36.5q-87 0 -166 38l23 72q76 -41 154 -41q39 0 60.5 16.5t21.5 40.5q0 25 -20 39t-69 26l-50 13q-68 18 -101 42.5
t-33 72.5z" />
    <glyph glyph-name="dieresis" unicode="&#xa8;" 
d="M420 581h-99l17 101h99zM242 581h-99l16 101h99z" />
    <glyph glyph-name="copyright" unicode="&#xa9;" horiz-adv-x="799" 
d="M761 346q0 -160 -96.5 -259.5t-249.5 -99.5t-248.5 98.5t-95.5 258.5t96 259.5t250 99.5q153 0 248.5 -98.5t95.5 -258.5zM717 345q0 151 -84.5 236.5t-216.5 85.5q-133 0 -217.5 -85.5t-84.5 -236.5t85 -236.5t217 -85.5t216.5 85.5t84.5 236.5zM552 185
q-57 -41 -126 -41q-84 0 -134.5 56t-50.5 148q0 91 51.5 147.5t134.5 56.5q62 0 119 -35l-10 -68q-56 41 -109 41q-55 0 -87 -38.5t-32 -103.5q0 -64 32.5 -103t86.5 -39q53 0 115 44z" />
    <glyph glyph-name="ordfeminine" unicode="&#xaa;" horiz-adv-x="381" 
d="M321 223h-267l10 59h257v-59zM281 444l12 77q-144 -16 -144 -85q0 -34 39 -34q33 0 93 42zM300 562l2 11q10 56 -49 56q-51 0 -111 -28v54q65 26 118 26q125 0 106 -112l-24 -145v-66h-55l-5 41q-62 -48 -112 -48q-38 0 -62 21.5t-24 59.5q0 113 216 130z" />
    <glyph glyph-name="guillemotleft" unicode="&#xab;" horiz-adv-x="535" 
d="M528 507l-191 -260l109 -236l-73 -16l-131 257l201 255h85zM324 507l-191 -260l109 -236l-73 -16l-132 257l202 255h85z" />
    <glyph glyph-name="logicalnot" unicode="&#xac;" horiz-adv-x="572" 
d="M514 215h-464l12 74h464z" />
    <glyph glyph-name="registered" unicode="&#xae;" horiz-adv-x="563" 
d="M544 470q0 -103 -63.5 -167.5t-163.5 -64.5q-101 0 -163.5 64t-62.5 168q0 103 63.5 168t163.5 65t163 -64.5t63 -168.5zM512 470q0 96 -55.5 151t-138.5 55q-85 0 -140 -55t-55 -151q0 -95 55.5 -150t138.5 -55q85 0 140 55t55 150zM429 356l-45 -10l-77 110h-25v-106
h-43v257h77q41 0 65.5 -20t24.5 -55q0 -55 -52 -71zM361 529q0 38 -45 38h-34v-76h32q47 0 47 38z" />
    <glyph glyph-name="macron" unicode="&#xaf;" 
d="M409 605h-247l11 72h246z" />
    <glyph glyph-name="degree" unicode="&#xb0;" horiz-adv-x="453" 
d="M426 528q0 -73 -47 -119.5t-120 -46.5t-120 46.5t-47 119.5t47 120.5t120 47.5t120 -47.5t47 -120.5zM358 528q0 44 -28.5 74t-70.5 30q-43 0 -71 -30t-28 -74q0 -45 28 -73.5t71 -28.5q42 0 70.5 28.5t28.5 73.5z" />
    <glyph glyph-name="plusminus" unicode="&#xb1;" horiz-adv-x="541" 
d="M480 1h-111l-28 -175l-79 -13l29 188h-305l10 64l350 450h104l-70 -441h112zM303 74l54 344l-263 -344h209z" />
    <glyph glyph-name="twosuperior" unicode="&#xb2;" horiz-adv-x="500" 
d="M25 -200v1000h450v-1000h-450z" />
    <glyph glyph-name="threesuperior" unicode="&#xb3;" horiz-adv-x="500" 
d="M25 -200v1000h450v-1000h-450z" />
    <glyph glyph-name="acute" unicode="&#xb4;" 
d="M408 704l-153 -127h-68l109 151z" />
    <glyph glyph-name="mu" unicode="&#xb5;" horiz-adv-x="572" 
d="M419 37l-137 165l-190 -166l-47 55l192 164l-138 162l59 51l136 -164l189 165l47 -55l-191 -163l139 -163z" />
    <glyph glyph-name="paragraph" unicode="&#xb6;" horiz-adv-x="536" 
d="M385 -174l-77 -12l99 625h-73l-23 -143l-65 -200q-95 5 -149 49.5t-54 128.5q0 105 75 169t204 64h172z" />
    <glyph glyph-name="periodcentered" unicode="&#xb7;" horiz-adv-x="227" 
d="M162 224h-100l18 119h100z" />
    <glyph glyph-name="cedilla" unicode="&#xb8;" 
d="M259 -74l-140 -108h-64l98 133z" />
    <glyph glyph-name="onesuperior" unicode="&#xb9;" horiz-adv-x="500" 
d="M25 -200v1000h450v-1000h-450z" />
    <glyph glyph-name="ordmasculine" unicode="&#xba;" horiz-adv-x="385" 
d="M216 352q-58 0 -93 36t-35 99q0 80 47.5 137t120.5 57q58 0 93.5 -36.5t35.5 -99.5q0 -80 -48 -136.5t-121 -56.5zM330 223h-276l10 59h266v-59zM252 629q-46 0 -72.5 -42.5t-26.5 -95.5q0 -43 18.5 -65t49.5 -22q46 0 72.5 42.5t26.5 95.5q0 43 -18.5 65t-49.5 22z" />
    <glyph glyph-name="guillemotright" unicode="&#xbb;" horiz-adv-x="535" 
d="M211 0l191 260l-109 236l73 16l132 -257l-202 -255h-85zM6 0l192 260l-109 236l73 16l131 -257l-201 -255h-86z" />
    <glyph glyph-name="onequarter" unicode="&#xbc;" horiz-adv-x="500" 
d="M25 -200v1000h450v-1000h-450z" />
    <glyph glyph-name="onehalf" unicode="&#xbd;" horiz-adv-x="500" 
d="M25 -200v1000h450v-1000h-450z" />
    <glyph glyph-name="threequarters" unicode="&#xbe;" horiz-adv-x="500" 
d="M25 -200v1000h450v-1000h-450z" />
    <glyph glyph-name="questiondown" unicode="&#xbf;" horiz-adv-x="484" 
d="M328 322l-29 -12q-103 -42 -138.5 -72.5t-35.5 -81.5q0 -40 27.5 -63t76.5 -23q88 0 190 72v-90q-96 -65 -205 -65q-85 0 -134 43t-49 114q0 80 49 129.5t176 99.5l25 99l60 13zM276 571l19 119h100l-19 -119h-100z" />
    <glyph glyph-name="Agrave" unicode="&#xc0;" horiz-adv-x="639" 
d="M578 13l-92 -20l-39 214h-255l-103 -207h-97l357 693h94zM431 288l-53 293l-146 -293h199zM427 738h-57l-113 127l107 24z" />
    <glyph glyph-name="Aacute" unicode="&#xc1;" horiz-adv-x="639" 
d="M578 13l-92 -20l-39 214h-255l-103 -207h-97l357 693h94zM431 288l-53 293l-146 -293h199zM591 865l-153 -127h-68l109 151z" />
    <glyph glyph-name="Acircumflex" unicode="&#xc2;" horiz-adv-x="639" 
d="M578 13l-92 -20l-39 214h-255l-103 -207h-97l357 693h94zM431 288l-53 293l-146 -293h199zM537 736l-48 -10l-75 74l-98 -71h-58l123 141h83z" />
    <glyph glyph-name="Atilde" unicode="&#xc3;" horiz-adv-x="639" 
d="M578 13l-92 -20l-39 214h-255l-103 -207h-97l357 693h94zM431 288l-53 293l-146 -293h199zM572 855q-32 -114 -101 -114q-29 0 -67 23q-44 25 -61 25q-22 0 -40 -51l-57 12q32 114 101 114q29 0 67 -23q44 -25 61 -25q22 0 40 51z" />
    <glyph glyph-name="Adieresis" unicode="&#xc4;" horiz-adv-x="639" 
d="M578 13l-92 -20l-39 214h-255l-103 -207h-97l357 693h94zM431 288l-53 293l-146 -293h199zM539 742h-99l17 101h99zM361 742h-99l16 101h99z" />
    <glyph glyph-name="Aring" unicode="&#xc5;" horiz-adv-x="639" 
d="M578 13l-92 -20l-39 214h-255l-103 -207h-97l357 693h94zM431 288l-53 293l-146 -293h199zM517 838q0 -45 -29.5 -73.5t-74.5 -28.5t-74 28.5t-29 73.5t29 74.5t74 29.5t74.5 -30t29.5 -74zM470 838q0 26 -16 43t-41 17q-24 0 -40.5 -17.5t-16.5 -42.5t16.5 -42t40.5 -17
q25 0 41 16.5t16 42.5z" />
    <glyph glyph-name="AE" unicode="&#xc6;" horiz-adv-x="850" 
d="M877 690l-13 -82h-254l-32 -205h196v-84h-209l-38 -237h263l-13 -82h-355l33 207h-239l-152 -207h-99l508 690h404zM521 624l-246 -336h193z" />
    <glyph glyph-name="Ccedilla" unicode="&#xc7;" horiz-adv-x="599" 
d="M597 636l-28 -91q-75 75 -166 75q-110 0 -179.5 -98.5t-69.5 -230.5q0 -109 48 -165t131 -56q91 0 181 63v-89q-87 -56 -186 -56q-125 0 -196.5 77.5t-71.5 215.5q0 170 98.5 295.5t249.5 125.5q114 0 189 -66zM358 -74l-140 -108h-64l98 133z" />
    <glyph glyph-name="Egrave" unicode="&#xc8;" horiz-adv-x="467" 
d="M494 690l-13 -82h-254l-32 -205h196v-84h-209l-38 -237h263l-13 -82h-355l109 690h346zM380 738h-57l-113 127l107 24z" />
    <glyph glyph-name="Eacute" unicode="&#xc9;" horiz-adv-x="467" 
d="M494 690l-13 -82h-254l-32 -205h196v-84h-209l-38 -237h263l-13 -82h-355l109 690h346zM482 865l-153 -127h-68l109 151z" />
    <glyph glyph-name="Ecircumflex" unicode="&#xca;" horiz-adv-x="467" 
d="M494 690l-13 -82h-254l-32 -205h196v-84h-209l-38 -237h263l-13 -82h-355l109 690h346zM464 745l-48 -10l-75 74l-98 -71h-58l123 141h83z" />
    <glyph glyph-name="Edieresis" unicode="&#xcb;" horiz-adv-x="467" 
d="M494 690l-13 -82h-254l-32 -205h196v-84h-209l-38 -237h263l-13 -82h-355l109 690h346zM466 742h-99l17 101h99zM288 742h-99l16 101h99z" />
    <glyph glyph-name="Igrave" unicode="&#xcc;" horiz-adv-x="258" 
d="M245 690l-109 -690h-92l109 690h92zM232 738h-57l-113 127l107 24z" />
    <glyph glyph-name="Iacute" unicode="&#xcd;" horiz-adv-x="258" 
d="M245 690l-109 -690h-92l109 690h92zM389 865l-153 -127h-68l109 151z" />
    <glyph glyph-name="Icircumflex" unicode="&#xce;" horiz-adv-x="258" 
d="M245 690l-109 -690h-92l109 690h92zM340 736l-48 -10l-75 74l-98 -71h-58l123 141h83z" />
    <glyph glyph-name="Idieresis" unicode="&#xcf;" horiz-adv-x="258" 
d="M245 690l-109 -690h-92l109 690h92zM342 742h-99l17 101h99zM164 742h-99l16 101h99z" />
    <glyph glyph-name="Eth" unicode="&#xd0;" horiz-adv-x="684" 
d="M653 409q0 -184 -112 -296q-113 -113 -301 -113h-171l50 319h-75v84h89l45 287h172q143 0 223 -73.5t80 -207.5zM558 399q0 104 -55.5 157t-161.5 53h-84l-33 -206h174l-14 -84h-173l-38 -238h78q140 0 221 81q86 86 86 237z" />
    <glyph glyph-name="Ntilde" unicode="&#xd1;" horiz-adv-x="654" 
d="M647 690l-109 -690h-57l-271 558l-88 -558h-83l109 690h91l246 -506l79 506h83zM579 846q-31 -114 -101 -114q-29 0 -67 23q-44 25 -61 25q-22 0 -40 -51l-57 12q31 114 101 114q29 0 67 -23q44 -25 61 -25q22 0 40 51z" />
    <glyph glyph-name="Ograve" unicode="&#xd2;" horiz-adv-x="696" 
d="M663 407q0 -180 -97.5 -300t-241.5 -120q-128 0 -196 81.5t-68 214.5q0 180 97.5 300t241.5 120q128 0 196 -81.5t68 -214.5zM569 402q0 105 -45.5 163.5t-129.5 58.5q-104 0 -172 -96t-68 -240q0 -105 45.5 -163.5t128.5 -58.5q105 0 173 96t68 240zM463 747h-57
l-113 127l107 24z" />
    <glyph glyph-name="Oacute" unicode="&#xd3;" horiz-adv-x="696" 
d="M663 407q0 -180 -97.5 -300t-241.5 -120q-128 0 -196 81.5t-68 214.5q0 180 97.5 300t241.5 120q128 0 196 -81.5t68 -214.5zM569 402q0 105 -45.5 163.5t-129.5 58.5q-104 0 -172 -96t-68 -240q0 -105 45.5 -163.5t128.5 -58.5q105 0 173 96t68 240zM582 874l-153 -127
h-68l109 151z" />
    <glyph glyph-name="Ocircumflex" unicode="&#xd4;" horiz-adv-x="696" 
d="M663 407q0 -180 -97.5 -300t-241.5 -120q-128 0 -196 81.5t-68 214.5q0 180 97.5 300t241.5 120q128 0 196 -81.5t68 -214.5zM569 402q0 105 -45.5 163.5t-129.5 58.5q-104 0 -172 -96t-68 -240q0 -105 45.5 -163.5t128.5 -58.5q105 0 173 96t68 240zM556 749l-48 -10
l-75 74l-98 -71h-58l123 141h83z" />
    <glyph glyph-name="Otilde" unicode="&#xd5;" horiz-adv-x="696" 
d="M663 407q0 -180 -97.5 -300t-241.5 -120q-128 0 -196 81.5t-68 214.5q0 180 97.5 300t241.5 120q128 0 196 -81.5t68 -214.5zM569 402q0 105 -45.5 163.5t-129.5 58.5q-104 0 -172 -96t-68 -240q0 -105 45.5 -163.5t128.5 -58.5q105 0 173 96t68 240zM591 868
q-32 -114 -101 -114q-29 0 -67 23q-44 25 -61 25q-22 0 -40 -51l-57 12q31 114 101 114q29 0 67 -23q44 -25 61 -25q22 0 40 51z" />
    <glyph glyph-name="Odieresis" unicode="&#xd6;" horiz-adv-x="696" 
d="M663 407q0 -180 -97.5 -300t-241.5 -120q-128 0 -196 81.5t-68 214.5q0 180 97.5 300t241.5 120q128 0 196 -81.5t68 -214.5zM569 402q0 105 -45.5 163.5t-129.5 58.5q-104 0 -172 -96t-68 -240q0 -105 45.5 -163.5t128.5 -58.5q105 0 173 96t68 240zM558 751h-99l17 101
h99zM380 751h-99l16 101h99z" />
    <glyph glyph-name="multiply" unicode="&#xd7;" horiz-adv-x="500" 
d="M25 -200v1000h450v-1000h-450z" />
    <glyph glyph-name="Oslash" unicode="&#xd8;" horiz-adv-x="696" 
d="M557 507l-355 -390q47 -53 130 -53q103 0 171 98t68 245q0 55 -14 100zM166 182l355 390q-46 54 -131 54q-102 0 -170 -97.5t-68 -245.5q0 -56 14 -101zM99 110q-39 72 -39 173q0 180 96.5 300t237.5 120q117 0 186 -67l57 63l80 -18l-93 -102q39 -71 39 -172
q0 -180 -96.5 -300t-237.5 -120q-117 0 -186 66l-14 -15l-28 -32l-14 -15l-80 18z" />
    <glyph glyph-name="Ugrave" unicode="&#xd9;" horiz-adv-x="637" 
d="M642 690l-73 -460q-20 -122 -92 -182.5t-180 -60.5q-107 0 -168.5 55.5t-61.5 161.5q0 31 7 75l65 411h92l-66 -416q-4 -27 -4 -61q0 -68 36.5 -105.5t106.5 -37.5q148 0 176 179l70 441h92zM441 724h-57l-113 127l107 24z" />
    <glyph glyph-name="Uacute" unicode="&#xda;" horiz-adv-x="637" 
d="M642 690l-73 -460q-20 -122 -92 -182.5t-180 -60.5q-107 0 -168.5 55.5t-61.5 161.5q0 31 7 75l65 411h92l-66 -416q-4 -27 -4 -61q0 -68 36.5 -105.5t106.5 -37.5q148 0 176 179l70 441h92zM560 851l-153 -127h-68l109 151z" />
    <glyph glyph-name="Ucircumflex" unicode="&#xdb;" horiz-adv-x="637" 
d="M642 690l-73 -460q-20 -122 -92 -182.5t-180 -60.5q-107 0 -168.5 55.5t-61.5 161.5q0 31 7 75l65 411h92l-66 -416q-4 -27 -4 -61q0 -68 36.5 -105.5t106.5 -37.5q148 0 176 179l70 441h92zM536 736l-48 -10l-75 74l-98 -71h-58l123 141h83z" />
    <glyph glyph-name="Udieresis" unicode="&#xdc;" horiz-adv-x="637" 
d="M642 690l-73 -460q-20 -122 -92 -182.5t-180 -60.5q-107 0 -168.5 55.5t-61.5 161.5q0 31 7 75l65 411h92l-66 -416q-4 -27 -4 -61q0 -68 36.5 -105.5t106.5 -37.5q148 0 176 179l70 441h92zM538 733h-99l17 101h99zM360 733h-99l16 101h99z" />
    <glyph glyph-name="Yacute" unicode="&#xdd;" horiz-adv-x="606" 
d="M655 690l-303 -416l-43 -274h-92l44 274l-167 403l95 20l131 -337l231 330h104zM544 847l-153 -127h-68l109 151z" />
    <glyph glyph-name="Thorn" unicode="&#xde;" horiz-adv-x="515" 
d="M496 377q0 -105 -75.5 -166.5t-212.5 -61.5h-54l-23 -149h-92l109 690h92l-21 -132h42q114 0 174.5 -46.5t60.5 -134.5zM403 365q0 113 -139 113h-58l-39 -247h57q179 0 179 134z" />
    <glyph glyph-name="germandbls" unicode="&#xdf;" horiz-adv-x="864" 
d="M377 150q0 -71 -54.5 -114.5t-140.5 -43.5q-93 0 -182 47l25 76q89 -49 168 -49q44 0 72 20.5t28 54.5q0 24 -18 41.5t-67 38.5q-75 32 -107 63t-32 81q0 64 51 106.5t128 42.5q86 0 154 -37l-25 -79q-73 42 -139 42q-38 0 -61.5 -19t-23.5 -46q0 -23 19.5 -40t74.5 -40
q70 -29 100 -61.5t30 -83.5zM809 150q0 -71 -54.5 -114.5t-140.5 -43.5q-93 0 -182 47l25 76q89 -49 168 -49q44 0 72 20.5t28 54.5q0 24 -18 41.5t-67 38.5q-75 32 -107 63t-32 81q0 64 51 106.5t128 42.5q86 0 154 -37l-25 -79q-73 42 -139 42q-38 0 -61.5 -19t-23.5 -46
q0 -23 19.5 -40t74.5 -40q70 -29 100 -61.5t30 -83.5z" />
    <glyph glyph-name="agrave" unicode="&#xe0;" horiz-adv-x="536" 
d="M340 577h-57l-113 127l107 24zM346 203l-47 229h-1l-119 -229h167zM139 127l-66 -127h-92l279 513h100l116 -502l-86 -20l-28 136h-223z" />
    <glyph glyph-name="aacute" unicode="&#xe1;" horiz-adv-x="536" 
d="M512 704l-153 -127h-68l109 151zM346 203l-47 229h-1l-119 -229h167zM139 127l-66 -127h-92l279 513h100l116 -502l-86 -20l-28 136h-223z" />
    <glyph glyph-name="acircumflex" unicode="&#xe2;" horiz-adv-x="536" 
d="M449 584l-48 -10l-75 74l-98 -71h-58l123 141h83zM346 203l-47 229h-1l-119 -229h167zM139 127l-66 -127h-92l279 513h100l116 -502l-86 -20l-28 136h-223z" />
    <glyph glyph-name="atilde" unicode="&#xe3;" horiz-adv-x="536" 
d="M493 694q-31 -114 -101 -114q-29 0 -67 23q-44 25 -61 25q-22 0 -40 -51l-57 12q31 114 101 114q29 0 67 -23q44 -25 61 -25q22 0 40 51zM346 203l-47 229h-1l-119 -229h167zM139 127l-66 -127h-92l279 513h100l116 -502l-86 -20l-28 136h-223z" />
    <glyph glyph-name="adieresis" unicode="&#xe4;" horiz-adv-x="536" 
d="M282 581h-99l16 101h99zM460 581h-99l17 101h99zM346 203l-47 229h-1l-119 -229h167zM139 127l-66 -127h-92l279 513h100l116 -502l-86 -20l-28 136h-223z" />
    <glyph glyph-name="aring" unicode="&#xe5;" horiz-adv-x="536" 
d="M391 677q0 26 -16 43t-41 17q-24 0 -40.5 -17.5t-16.5 -42.5t16.5 -42t40.5 -17q25 0 41 16.5t16 42.5zM438 677q0 -45 -29.5 -73.5t-74.5 -28.5t-74 28.5t-29 73.5t29 74.5t74 29.5t74.5 -30t29.5 -74zM346 203l-47 229h-1l-119 -229h167zM139 127l-66 -127h-92l279 513
h100l116 -502l-86 -20l-28 136h-223z" />
    <glyph glyph-name="ae" unicode="&#xe6;" horiz-adv-x="729" 
d="M356 201l39 247l-175 -247h136zM167 127l-90 -127h-104l366 507h378l-13 -79h-221l-20 -125h176v-79h-188l-23 -145h228l-13 -79h-318l20 127h-178z" />
    <glyph glyph-name="ccedilla" unicode="&#xe7;" horiz-adv-x="481" 
d="M403 27q-67 -37 -142 -37q-102 0 -161.5 59.5t-59.5 161.5q0 128 77 217t196 89q92 0 153 -47l-28 -82q-57 53 -128 53q-79 0 -128 -66t-49 -159q0 -73 36.5 -112t101.5 -39q63 0 132 40v-78zM272 -74l-140 -108h-64l98 133z" />
    <glyph glyph-name="egrave" unicode="&#xe8;" horiz-adv-x="435" 
d="M349 0h-318l81 507h311l-13 -79h-221l-20 -125h176v-79h-188l-23 -145h228zM313 577h-57l-113 127l107 24z" />
    <glyph glyph-name="eacute" unicode="&#xe9;" horiz-adv-x="435" 
d="M349 0h-318l81 507h311l-13 -79h-221l-20 -125h176v-79h-188l-23 -145h228zM443 704l-153 -127h-68l109 151z" />
    <glyph glyph-name="ecircumflex" unicode="&#xea;" horiz-adv-x="435" 
d="M349 0h-318l81 507h311l-13 -79h-221l-20 -125h176v-79h-188l-23 -145h228zM417 584l-48 -10l-75 74l-98 -71h-58l123 141h83z" />
    <glyph glyph-name="edieresis" unicode="&#xeb;" horiz-adv-x="435" 
d="M349 0h-318l81 507h311l-13 -79h-221l-20 -125h176v-79h-188l-23 -145h228zM410 581h-99l17 101h99zM232 581h-99l16 101h99z" />
    <glyph glyph-name="igrave" unicode="&#xec;" horiz-adv-x="242" 
d="M126 0h-90l80 507h90zM193 577h-57l-113 127l107 24z" />
    <glyph glyph-name="iacute" unicode="&#xed;" horiz-adv-x="242" 
d="M126 0h-90l80 507h90zM358 704l-153 -127h-68l109 151z" />
    <glyph glyph-name="icircumflex" unicode="&#xee;" horiz-adv-x="242" 
d="M126 0h-90l80 507h90zM309 584l-48 -10l-75 74l-98 -71h-58l123 141h83z" />
    <glyph glyph-name="idieresis" unicode="&#xef;" horiz-adv-x="242" 
d="M126 0h-90l80 507h90zM311 581h-99l17 101h99zM133 581h-99l16 101h99z" />
    <glyph glyph-name="eth" unicode="&#xf0;" horiz-adv-x="588" 
d="M548 293q0 -122 -87.5 -207.5t-230.5 -85.5h-158l34 219h-78v82h91l33 206h152q119 0 181.5 -57.5t62.5 -156.5zM455 288q0 68 -40.5 103.5t-113.5 35.5h-73l-20 -126h101l-14 -82h-100l-22 -139h64q98 0 158 58t60 150z" />
    <glyph glyph-name="ntilde" unicode="&#xf1;" horiz-adv-x="555" 
d="M443 0h-77l-192 380l-60 -380h-82l80 507h88l183 -366l58 366h82zM503 694q-31 -114 -101 -114q-29 0 -67 23q-44 25 -61 25q-22 0 -40 -51l-57 12q31 114 101 114q29 0 67 -23q44 -25 61 -25q22 0 40 51z" />
    <glyph glyph-name="ograve" unicode="&#xf2;" horiz-adv-x="555" 
d="M515 298q0 -131 -78 -219t-183 -88q-100 0 -157 61t-57 157q0 131 78 219t183 88q100 0 157 -61t57 -157zM428 296q0 71 -34 108.5t-96 37.5q-70 0 -120.5 -66.5t-50.5 -164.5q0 -71 35 -109t98 -38q68 0 118 67t50 165zM351 577h-57l-113 127l107 24z" />
    <glyph glyph-name="oacute" unicode="&#xf3;" horiz-adv-x="555" 
d="M515 298q0 -131 -78 -219t-183 -88q-100 0 -157 61t-57 157q0 131 78 219t183 88q100 0 157 -61t57 -157zM428 296q0 71 -34 108.5t-96 37.5q-70 0 -120.5 -66.5t-50.5 -164.5q0 -71 35 -109t98 -38q68 0 118 67t50 165zM510 704l-153 -127h-68l109 151z" />
    <glyph glyph-name="ocircumflex" unicode="&#xf4;" horiz-adv-x="555" 
d="M515 298q0 -131 -78 -219t-183 -88q-100 0 -157 61t-57 157q0 131 78 219t183 88q100 0 157 -61t57 -157zM428 296q0 71 -34 108.5t-96 37.5q-70 0 -120.5 -66.5t-50.5 -164.5q0 -71 35 -109t98 -38q68 0 118 67t50 165zM471 584l-48 -10l-75 74l-98 -71h-58l123 141h83z
" />
    <glyph glyph-name="otilde" unicode="&#xf5;" horiz-adv-x="555" 
d="M515 298q0 -131 -78 -219t-183 -88q-100 0 -157 61t-57 157q0 131 78 219t183 88q100 0 157 -61t57 -157zM428 296q0 71 -34 108.5t-96 37.5q-70 0 -120.5 -66.5t-50.5 -164.5q0 -71 35 -109t98 -38q68 0 118 67t50 165zM503 694q-31 -114 -101 -114q-29 0 -67 23
q-44 25 -61 25q-22 0 -40 -51l-57 12q31 114 101 114q29 0 67 -23q44 -25 61 -25q22 0 40 51z" />
    <glyph glyph-name="odieresis" unicode="&#xf6;" horiz-adv-x="555" 
d="M515 298q0 -131 -78 -219t-183 -88q-100 0 -157 61t-57 157q0 131 78 219t183 88q100 0 157 -61t57 -157zM428 296q0 71 -34 108.5t-96 37.5q-70 0 -120.5 -66.5t-50.5 -164.5q0 -71 35 -109t98 -38q68 0 118 67t50 165zM470 581h-99l17 101h99zM292 581h-99l16 101h99z
" />
    <glyph glyph-name="divide" unicode="&#xf7;" horiz-adv-x="572" 
d="M357 381h-98l17 107h98zM514 215h-464l12 74h464zM300 16h-98l17 107h98z" />
    <glyph glyph-name="oslash" unicode="&#xf8;" horiz-adv-x="555" 
d="M420 360l-62 -66l-126 -134l-63 -67q33 -30 91 -30q68 0 118.5 68.5t50.5 166.5q0 35 -9 62zM135 147l251 267q-32 29 -88 29q-70 0 -121 -68t-51 -166q0 -35 9 -62zM72 84q-32 53 -32 125q0 131 78 219t183 88q83 0 139 -45l42 43l71 -16l-71 -75q33 -52 33 -125
q0 -131 -78 -219t-183 -88q-85 0 -139 45l-43 -44l-71 16z" />
    <glyph glyph-name="ugrave" unicode="&#xf9;" horiz-adv-x="550" 
d="M471 195q-16 -101 -75.5 -153t-153.5 -52q-85 0 -135.5 43t-50.5 114q0 28 5 56l48 304h90l-48 -300q-4 -28 -4 -54q0 -38 26 -62t76 -24q54 0 87.5 34t44.5 98l49 308h91zM359 577h-57l-113 127l107 24z" />
    <glyph glyph-name="uacute" unicode="&#xfa;" horiz-adv-x="550" 
d="M471 195q-16 -101 -75.5 -153t-153.5 -52q-85 0 -135.5 43t-50.5 114q0 28 5 56l48 304h90l-48 -300q-4 -28 -4 -54q0 -38 26 -62t76 -24q54 0 87.5 34t44.5 98l49 308h91zM488 704l-153 -127h-68l109 151z" />
    <glyph glyph-name="ucircumflex" unicode="&#xfb;" horiz-adv-x="550" 
d="M471 195q-16 -101 -75.5 -153t-153.5 -52q-85 0 -135.5 43t-50.5 114q0 28 5 56l48 304h90l-48 -300q-4 -28 -4 -54q0 -38 26 -62t76 -24q54 0 87.5 34t44.5 98l49 308h91zM462 584l-48 -10l-75 74l-98 -71h-58l123 141h83z" />
    <glyph glyph-name="udieresis" unicode="&#xfc;" horiz-adv-x="550" 
d="M471 195q-16 -101 -75.5 -153t-153.5 -52q-85 0 -135.5 43t-50.5 114q0 28 5 56l48 304h90l-48 -300q-4 -28 -4 -54q0 -38 26 -62t76 -24q54 0 87.5 34t44.5 98l49 308h91zM464 581h-99l17 101h99zM286 581h-99l16 101h99z" />
    <glyph glyph-name="yacute" unicode="&#xfd;" horiz-adv-x="484" 
d="M512 507l-235 -310l-31 -197h-91l31 196l-133 300l91 20l97 -240l168 231h103zM469 704l-153 -127h-68l109 151z" />
    <glyph glyph-name="thorn" unicode="&#xfe;" horiz-adv-x="451" 
d="M188 418h55q85 0 130 -35t45 -102q0 -84 -58.5 -130t-158.5 -46h-63l-16 -105h-90l80 507h90zM150 180h62q58 0 89 24t31 66q0 72 -97 72h-59z" />
    <glyph glyph-name="ydieresis" unicode="&#xff;" horiz-adv-x="484" 
d="M512 507l-235 -310l-31 -197h-91l31 196l-133 300l91 20l97 -240l168 231h103zM435 581h-99l17 101h99zM257 581h-99l16 101h99z" />
    <glyph glyph-name="dotlessi" unicode="&#x131;" horiz-adv-x="242" 
d="M126 0h-90l80 507h90z" />
    <glyph glyph-name="Lslash" unicode="&#x141;" horiz-adv-x="464" 
d="M400 0h-332l49 311l-77 -16v82l91 19l46 294h92l-44 -274l166 34l-13 -84l-166 -35l-39 -249h227v-82z" />
    <glyph glyph-name="lslash" unicode="&#x142;" horiz-adv-x="435" 
d="M359 0h-290l33 213l-78 -17v80l91 19l34 212h90l-31 -193l147 31l-13 -82l-147 -31l-24 -154h188v-78z" />
    <glyph glyph-name="OE" unicode="&#x152;" horiz-adv-x="820" 
d="M847 690l-13 -82h-254l-32 -205h196v-84h-209l-38 -237h263l-13 -82h-381q-142 0 -222 73.5t-80 207.5q0 190 114.5 299.5t298.5 109.5h370zM489 609h-23q-143 0 -225 -83.5t-82 -234.5q0 -104 55.5 -157t161.5 -53h30z" />
    <glyph glyph-name="oe" unicode="&#x153;" horiz-adv-x="715" 
d="M703 507l-13 -79h-221l-20 -125h176v-79h-188l-23 -145h228l-13 -79h-345q-119 0 -181.5 57.5t-62.5 156.5q0 122 87.5 207.5t230.5 85.5h345zM381 427h-30q-98 0 -158 -58t-60 -150q0 -68 40.5 -103.5t113.5 -35.5h39z" />
    <glyph glyph-name="Scaron" unicode="&#x160;" horiz-adv-x="503" 
d="M486 652l-26 -86q-78 55 -151 55q-55 0 -83.5 -29.5t-28.5 -72.5q0 -34 23 -60t84 -62q83 -49 115 -94t32 -105q0 -98 -65.5 -153t-160.5 -55q-110 0 -202 58l26 87q90 -66 181 -66q56 0 92 31.5t36 85.5q0 38 -20.5 63t-77.5 60q-85 52 -120.5 93.5t-35.5 102.5
q0 85 59.5 140t155.5 55q98 0 167 -48zM486 888l-123 -141h-83l-73 134l48 10l76 -75l97 72h58z" />
    <glyph glyph-name="scaron" unicode="&#x161;" horiz-adv-x="432" 
d="M377 150q0 -71 -54.5 -114.5t-140.5 -43.5q-93 0 -182 47l25 76q89 -49 168 -49q44 0 72 20.5t28 54.5q0 24 -18 41.5t-67 38.5q-75 32 -107 63t-32 81q0 64 51 106.5t128 42.5q86 0 154 -37l-25 -79q-73 42 -139 42q-38 0 -61.5 -19t-23.5 -46q0 -23 19.5 -40t74.5 -40
q70 -29 100 -61.5t30 -83.5zM433 718l-123 -141h-83l-73 134l48 10l76 -75l97 72h58z" />
    <glyph glyph-name="Ydieresis" unicode="&#x178;" horiz-adv-x="606" 
d="M655 690l-303 -416l-43 -274h-92l44 274l-167 403l95 20l131 -337l231 330h104zM516 733h-99l17 101h99zM338 733h-99l16 101h99z" />
    <glyph glyph-name="Zcaron" unicode="&#x17d;" horiz-adv-x="577" 
d="M598 690l-11 -67l-451 -544h362v-79h-487l11 67l451 544h-336v79h461zM524 879l-123 -141h-83l-73 134l48 10l76 -75l97 72h58z" />
    <glyph glyph-name="zcaron" unicode="&#x17e;" horiz-adv-x="474" 
d="M388 0h-393l10 64l344 368h-252v75h373l-10 -64l-344 -369h272v-74zM455 718l-123 -141h-83l-73 134l48 10l76 -75l97 72h58z" />
    <glyph glyph-name="florin" unicode="&#x192;" horiz-adv-x="377" 
d="M345 433q-20 4 -49 4q-63 0 -75 -67l-15 -90h95v-75h-107l-53 -377l-88 -14l61 391h-70l11 75h71l15 91q13 76 52 110.5t114 34.5q18 0 38 -2v-81z" />
    <glyph glyph-name="circumflex" unicode="&#x2c6;" 
d="M418 584l-48 -10l-75 74l-98 -71h-58l123 141h83z" />
    <glyph glyph-name="caron" unicode="&#x2c7;" 
d="M445 718l-123 -141h-83l-73 134l48 10l76 -75l97 72h58z" />
    <glyph glyph-name="breve" unicode="&#x2d8;" 
d="M435 723q-11 -68 -50 -106.5t-100 -38.5q-59 0 -89.5 38t-22.5 99l63 13q-3 -76 61 -76q26 0 46 18.5t30 52.5h62z" />
    <glyph glyph-name="dotaccent" unicode="&#x2d9;" 
d="M331 581h-99l16 101h100z" />
    <glyph glyph-name="ring" unicode="&#x2da;" 
d="M398 677q0 -45 -29.5 -73.5t-74.5 -28.5t-74 28.5t-29 73.5t29 74.5t74 29.5t74.5 -30t29.5 -74zM351 677q0 26 -16 43t-41 17q-24 0 -40.5 -17.5t-16.5 -42.5t16.5 -42t40.5 -17q25 0 41 16.5t16 42.5z" />
    <glyph glyph-name="ogonek" unicode="&#x2db;" 
d="M262 -182h-56l-105 108l108 25z" />
    <glyph glyph-name="tilde" unicode="&#x2dc;" 
d="M453 694q-32 -114 -101 -114q-29 0 -67 23q-44 25 -61 25q-22 0 -40 -51l-57 12q32 114 101 114q29 0 67 -23q44 -25 61 -25q22 0 40 51z" />
    <glyph glyph-name="hungarumlaut" unicode="&#x2dd;" 
d="M471 706l-149 -125h-55l107 147zM311 706l-148 -125h-56l107 147z" />
    <glyph glyph-name="Delta" unicode="&#x394;" horiz-adv-x="500" 
d="M25 -200v1000h450v-1000h-450z" />
    <glyph glyph-name="Omega" unicode="&#x3a9;" horiz-adv-x="818" 
d="M403 428h-213l-21 -133h167v-79h-180l-34 -216h-90l81 507h303zM812 428h-213l-21 -133h167v-79h-180l-34 -216h-90l81 507h303z" />
    <glyph glyph-name="pi" unicode="&#x3c0;" horiz-adv-x="799" 
d="M760 346q0 -160 -96.5 -259.5t-249.5 -99.5t-248.5 98.5t-95.5 258.5t96.5 259.5t249.5 99.5t248.5 -98.5t95.5 -258.5zM716 345q0 151 -84.5 236.5t-216.5 85.5q-133 0 -217 -85.5t-84 -236.5t84.5 -236.5t216.5 -85.5q133 0 217 85.5t84 236.5zM560 426
q0 -60 -38.5 -91t-106.5 -31h-42v-154h-66v394h115q65 0 101.5 -31t36.5 -87zM493 424q0 60 -74 60h-46v-120h45q75 0 75 60z" />
    <glyph glyph-name="endash" unicode="&#x2013;" 
d="M400 242h-345l13 84h345z" />
    <glyph glyph-name="emdash" unicode="&#x2014;" horiz-adv-x="908" 
d="M854 243h-799l13 82h799z" />
    <glyph glyph-name="quoteleft" unicode="&#x2018;" horiz-adv-x="227" 
d="M82 465l119 233l48 -12l-64 -221h-103z" />
    <glyph glyph-name="quoteright" unicode="&#x2019;" horiz-adv-x="227" 
d="M251 690l-119 -233l-48 12l64 221h103z" />
    <glyph glyph-name="quotesinglbase" unicode="&#x201a;" horiz-adv-x="227" 
d="M158 119l-119 -233l-48 12l64 221h103z" />
    <glyph glyph-name="quotedblleft" unicode="&#x201c;" horiz-adv-x="409" 
d="M82 465l119 233l48 -12l-64 -221h-103zM264 465l119 233l48 -12l-64 -221h-103z" />
    <glyph glyph-name="quotedblright" unicode="&#x201d;" horiz-adv-x="409" 
d="M251 690l-119 -233l-48 12l64 221h103zM433 690l-119 -233l-48 12l64 221h103z" />
    <glyph glyph-name="quotedblbase" unicode="&#x201e;" horiz-adv-x="409" 
d="M158 119l-119 -233l-48 12l64 221h103zM340 119l-119 -233l-48 12l64 221h103z" />
    <glyph glyph-name="dagger" unicode="&#x2020;" horiz-adv-x="499" 
d="M348 611l-44 -135h-34v135l12 79h78zM479 399h-29l-131 21l4 33l139 22h29zM239 420l-139 -21h-29l12 76h29l131 -22zM251 17l-42 -131h-31v131l42 262l38 119h34v-119z" />
    <glyph glyph-name="daggerdbl" unicode="&#x2021;" horiz-adv-x="518" 
d="M356 611l-43 -135h-34v135l12 79h78zM488 399h-29l-132 21l5 33l138 22h29zM247 420l-139 -21h-29l12 76h29l132 -22zM293 230l-38 -119h-34v119l7 49l38 119h35v-119zM430 34h-29l-132 21l5 33l139 22h29zM189 55l-138 -21h-29l12 76h29l131 -22zM231 -182h-78l12 79
l43 136h34v-136z" />
    <glyph glyph-name="bullet" unicode="&#x2022;" horiz-adv-x="421" 
d="M360 345l-19 -123l-113 -18l-113 18l-20 123l20 124l113 17l113 -17z" />
    <glyph glyph-name="ellipsis" unicode="&#x2026;" horiz-adv-x="726" 
d="M617 0h-100l19 119h100zM376 0h-100l19 119h100zM135 0h-100l19 119h100z" />
    <glyph glyph-name="perthousand" unicode="&#x2030;" horiz-adv-x="799" 
d="M761 346q0 -160 -96.5 -259.5t-249.5 -99.5q-154 0 -249.5 98.5t-95.5 258.5t96.5 259.5t249.5 99.5q154 0 249.5 -98.5t95.5 -258.5zM717 345q0 151 -85 236.5t-216 85.5q-133 0 -217.5 -85.5t-84.5 -236.5t85 -236.5t217 -85.5t216.5 85.5t84.5 236.5zM473 318
l114 -152l-71 -16l-114 156h-41v-151h-67v394h115q64 0 102.5 -32.5t38.5 -88.5q0 -82 -77 -110zM407 490h-46v-127h44q36 0 56.5 16.5t20.5 46.5t-19.5 47t-55.5 17z" />
    <glyph glyph-name="guilsinglleft" unicode="&#x2039;" horiz-adv-x="331" 
d="M324 507l-191 -260l109 -236l-73 -16l-132 257l202 255h85z" />
    <glyph glyph-name="guilsinglright" unicode="&#x203a;" horiz-adv-x="331" 
d="M6 -2l192 260l-109 236l73 16l131 -257l-201 -255h-86z" />
    <glyph glyph-name="fraction" unicode="&#x2044;" horiz-adv-x="418" 
d="M508 582l-529 -680l-71 17l528 680z" />
    <glyph glyph-name="trademark" unicode="&#x2122;" horiz-adv-x="799" 
d="M793 345h-60l-19 240l-98 -241h-47l-98 241l-20 -240h-58l27 345h71l103 -258l102 258h69zM359 636h-111v-291h-60v291h-108v54h270z" />
    <glyph glyph-name="partialdiff" unicode="&#x2202;" horiz-adv-x="555" 
d="M347 98l-25 21q-24 21 -48 43l-25 21l93 19q52 -45 52 -46q34 63 34 140q0 71 -34 108.5t-96 37.5q-70 0 -120.5 -66.5t-50.5 -164.5q0 -71 35 -109t98 -38q48 0 87 34zM456 103l45 -39l-28 -74l-68 58q-68 -57 -151 -57q-100 0 -157 61t-57 157q0 131 78 219t183 88
q100 0 157 -61t57 -157q0 -110 -59 -195z" />
    <glyph glyph-name="product" unicode="&#x220f;" horiz-adv-x="500" 
d="M25 -200v1000h450v-1000h-450z" />
    <glyph glyph-name="summation" unicode="&#x2211;" horiz-adv-x="756" 
d="M378 250l-135 -252h-84l-100 500l92 16l72 -402l132 245l-30 138l90 17l77 -400l190 395h93l-258 -509h-85z" />
    <glyph glyph-name="minus" unicode="&#x2212;" horiz-adv-x="500" 
d="M25 -200v1000h450v-1000h-450z" />
    <glyph glyph-name="radical" unicode="&#x221a;" horiz-adv-x="1216" 
d="M403 428h-213l-21 -133h167v-79h-180l-34 -216h-90l81 507h303zM812 428h-213l-21 -133h167v-79h-180l-34 -216h-90l81 507h303zM1140 0h-290l80 507h90l-68 -429h188v-78z" />
    <glyph glyph-name="infinity" unicode="&#x221e;" horiz-adv-x="536" 
d="M346 203l-47 229h-1l-119 -229h167zM139 127l-66 -127h-92l279 513h100l116 -502l-86 -20l-28 136h-223z" />
    <glyph glyph-name="integral" unicode="&#x222b;" horiz-adv-x="524" 
d="M441 41q-90 -50 -182 -50q-102 0 -159.5 58t-57.5 165q0 127 77 214.5t205 87.5q97 0 163 -50l-26 -82q-64 57 -143 57q-87 0 -134.5 -66t-47.5 -153q0 -158 136 -158q48 0 91 20l19 118h-108v79h205z" />
    <glyph glyph-name="approxequal" unicode="&#x2248;" horiz-adv-x="1060" 
d="M403 428h-213l-21 -133h167v-79h-180l-34 -216h-90l81 507h303zM812 428h-213l-21 -133h167v-79h-180l-34 -216h-90l81 507h303zM944 0h-90l80 507h90z" />
    <glyph glyph-name="notequal" unicode="&#x2260;" horiz-adv-x="473" 
d="M452 438l-237 -228v-1q83 -1 129 -46t46 -109q0 -103 -93.5 -171.5t-230.5 -68.5q-49 0 -84 6v78q58 -8 91 -8q102 0 166 47.5t64 114.5q0 46 -35.5 69.5t-100.5 23.5q-23 0 -39 -3l-16 -3v66l225 219h-277v81h402z" />
    <glyph glyph-name="lessequal" unicode="&#x2264;" horiz-adv-x="695" 
d="M583 0h-85l62 395l-217 -397h-78l-92 397l-62 -395h-79l80 507h114l93 -416l223 416h121z" />
    <glyph glyph-name="greaterequal" unicode="&#x2265;" horiz-adv-x="532" 
d="M500 507l-81 -507h-74v56q-87 -62 -164 -62q-59 0 -95.5 33.5t-36.5 90.5q0 37 6 71l50 318h90l-52 -322q-4 -24 -4 -51q0 -62 70 -62q65 0 141 62l59 373h91z" />
    <glyph glyph-name="lozenge" unicode="&#x25ca;" horiz-adv-x="799" 
d="M793 345h-60l-19 240l-98 -241h-47l-98 241l-20 -240h-58l27 345h71l103 -258l102 258h69zM216 340q-57 0 -99 25l7 58q52 -32 93 -32q24 0 39.5 11.5t15.5 31.5q0 21 -12.5 34t-44.5 27q-54 24 -74.5 45.5t-20.5 61.5q0 41 30.5 67t79.5 26q50 0 84 -21l-10 -57
q-41 27 -76 27q-24 0 -38 -10.5t-14 -26.5q0 -20 12 -31.5t45 -26.5q54 -24 74.5 -46.5t20.5 -64.5q0 -45 -30.5 -71.5t-81.5 -26.5z" />
    <glyph glyph-name="apple" unicode="&#xf8ff;" horiz-adv-x="694" 
d="M644 -200h-208l-8 14h-163l-8 -14h-207v303q14 0 23 9.5t9 22.5t-9.5 22.5t-22.5 9.5v554h100l30 79h334l29 -79h101v-921zM400 563v-172h15v78h38v14h-38v66h43v14h-58zM184 563v-172h15v79h47v-79h15v172h-15v-79h-47v79h-15zM460 394q8 -4 21 -4q31 0 31 36v137h-16
v-137q0 -22 -16 -22q-10 0 -20 6v-16zM523 323v-46h8v13l7 7l16 -20h9l-19 26l18 20h-10l-21 -24v24h-8zM488 292l10 -15h9l-12 17q10 3 10 15q0 5 -4.5 9.5t-11.5 4.5h-21v-46h8v15h12zM426 276q11 0 17.5 7t6.5 17q0 9 -7 16.5t-17 7.5t-16.5 -7.5t-6.5 -16.5
q0 -10 6.5 -17t16.5 -7zM370 301l-13 22h-9l18 -29v-17h8v17l18 29h-9zM193 323v-46h33v7h-25v13h22v7h-22v12h25v7h-33zM132 323v-46h8v32l25 -32h7v46h-8v-32l-25 32h-7zM241 323l15 -47h8l10 34h1l11 -34h8l14 47h-8l-10 -35h-1l-10 35h-8l-11 -35h-1l-10 35h-8zM327 479
q-12 22 -12 32q0 19 14 19q13 0 13 -19q0 -15 -15 -32zM342 423q-6 -21 -18 -21q-17 0 -17 27q0 18 15 33zM488 299h-12v17h11q10 0 10 -8q0 -9 -9 -9zM426 283q-15 0 -15 17q0 6 4.5 11.5t10.5 5.5q7 0 11.5 -5.5t4.5 -11.5q0 -7 -4.5 -12t-11.5 -5zM349 438l-16 31
q23 21 23 42q0 12 -7 21.5t-20 9.5q-12 0 -20 -9.5t-8 -21.5q0 -13 14 -39q-23 -18 -23 -45q0 -17 9 -28t22 -11q17 0 27 24h1l12 -24l11 8l-16 30q10 23 13 39l-13 3q-2 -9 -9 -30z" />
    <glyph glyph-name="fi" unicode="&#xfb01;" horiz-adv-x="651" 
d="M403 428h-213l-21 -133h167v-79h-180l-34 -216h-90l81 507h303zM535 0h-90l80 507h90z" />
    <glyph glyph-name="fl" unicode="&#xfb02;" horiz-adv-x="807" 
d="M403 428h-213l-21 -133h167v-79h-180l-34 -216h-90l81 507h303zM731 0h-290l80 507h90l-68 -429h188v-78z" />
    <glyph glyph-name="NUL" horiz-adv-x="0" 
 />
    </font>
</defs>
</svg>
